<?xml version="1.0" standalone="no"?>
<!DOCTYPE svg PUBLIC "-//W3C//DTD SVG 20010904//EN"
 "http://www.w3.org/TR/2001/REC-SVG-20010904/DTD/svg10.dtd">
<svg version="1.0" xmlns="http://www.w3.org/2000/svg"
 width="1282.000000pt" height="1282.000000pt" viewBox="0 0 1282.000000 1282.000000"
 preserveAspectRatio="xMidYMid meet">
<metadata>
Created by potrace 1.14, written by Peter Selinger 2001-2017
</metadata>
<g transform="translate(0.000000,1282.000000) scale(0.100000,-0.100000)"
fill="#000000" stroke="none">
<path d="M0 6410 l0 -6410 6410 0 6410 0 0 1304 c0 1034 -3 1306 -12 1310 -10
5 -10 7 0 12 14 7 16 34 2 34 -5 0 -20 18 -32 40 -26 46 -33 49 -43 18 -6 -22
-7 -22 -15 5 -11 35 -29 59 -41 51 -5 -3 -9 6 -9 20 0 14 -6 27 -12 27 -17 2
-28 4 -56 14 -20 7 -23 13 -20 41 3 23 0 34 -9 34 -19 0 -16 27 5 39 16 9 16
10 -2 17 -15 6 -13 9 14 20 22 10 30 19 26 29 -3 9 0 15 9 15 8 0 15 5 15 10
0 6 6 10 13 10 15 0 77 57 77 71 0 6 20 30 45 54 30 28 41 45 33 48 -10 4 -10
6 0 6 8 1 12 23 12 76 0 72 -1 75 -24 75 -13 0 -26 -6 -29 -14 -3 -8 -19 -17
-36 -21 -17 -4 -34 -13 -38 -20 -5 -7 -20 -17 -36 -20 -23 -6 -26 -5 -20 10 5
15 2 17 -23 11 -83 -18 -88 -18 -115 8 l-27 25 -6 -30 c-3 -17 -12 -29 -21
-29 -8 0 -15 -6 -15 -13 0 -7 -15 -18 -32 -25 -28 -10 -30 -9 -15 2 15 12 16
14 2 20 -17 6 -65 -12 -65 -25 0 -4 4 -11 10 -14 6 -4 5 -13 -3 -25 -16 -27
-70 -26 -108 1 -33 23 -50 19 -42 -12 4 -12 0 -25 -8 -30 -12 -8 -12 -11 1
-18 18 -11 19 -63 2 -69 -7 -2 -12 3 -12 11 0 8 -15 21 -32 28 -18 7 -36 14
-40 17 -5 2 -8 -3 -8 -12 0 -9 -4 -16 -10 -16 -5 0 -10 -9 -10 -19 0 -11 -4
-22 -9 -26 -10 -6 -83 33 -90 48 -8 19 -44 45 -57 40 -8 -3 -14 0 -14 6 0 6
-11 11 -24 11 -32 0 -44 -34 -22 -59 19 -20 21 -44 4 -39 -15 5 -58 -35 -58
-55 0 -9 -9 -18 -19 -22 -12 -3 -21 -17 -23 -33 -2 -17 -12 -31 -26 -37 -19
-8 -22 -17 -20 -44 2 -21 -2 -36 -10 -39 -6 -2 -12 1 -12 7 0 19 -40 12 -41
-6 -1 -10 -2 -25 -3 -34 -2 -25 -25 -47 -44 -42 -11 2 -29 -6 -44 -22 -16 -16
-32 -23 -42 -19 -13 5 -16 -1 -16 -32 0 -57 -14 -74 -31 -39 -8 15 -32 37 -54
50 -32 18 -45 20 -67 11 -33 -12 -36 -26 -8 -44 12 -7 18 -17 15 -22 -3 -5 5
-22 19 -37 15 -15 26 -38 26 -51 0 -20 -4 -22 -22 -16 -13 4 -35 7 -50 6 -15
0 -30 4 -33 9 -12 19 -35 9 -35 -15 0 -29 -18 -44 -26 -22 -5 12 -13 8 -37
-19 -22 -25 -39 -35 -60 -35 -20 0 -28 -4 -24 -13 2 -7 -3 -22 -12 -33 -35
-44 -91 -56 -127 -29 -29 22 -53 18 -86 -16 -30 -30 -33 -30 -76 -19 -37 9
-48 8 -69 -5 -20 -13 -27 -14 -39 -4 -13 10 -17 10 -25 -2 -13 -20 -11 -53 4
-68 10 -11 7 -13 -18 -8 -25 5 -35 0 -57 -26 -23 -26 -28 -29 -34 -14 -3 9
-13 17 -21 17 -11 0 -13 -7 -9 -25 4 -14 2 -25 -3 -25 -5 0 -16 -3 -25 -6 -11
-4 -19 2 -26 20 -5 14 -11 26 -12 26 -2 0 -4 -20 -5 -45 -2 -54 -10 -70 -28
-55 -9 7 -16 6 -24 -4 -6 -7 -29 -16 -51 -20 -22 -3 -40 -11 -40 -17 0 -5 -4
-7 -10 -4 -5 3 -10 14 -10 24 0 19 -28 81 -36 81 -3 0 -4 -8 -3 -17 4 -28 -11
-63 -27 -63 -8 0 -14 -10 -14 -25 0 -14 -4 -25 -8 -25 -15 0 -30 22 -25 36 3
8 -1 14 -11 14 -10 0 -16 -9 -16 -25 0 -25 -1 -25 -49 -19 -48 6 -50 5 -66
-26 -10 -20 -22 -30 -31 -26 -10 4 -14 -3 -14 -24 0 -17 -4 -30 -10 -30 -5 0
-17 -14 -25 -30 -9 -17 -20 -28 -25 -25 -5 3 -10 -5 -12 -17 -2 -16 -11 -24
-30 -26 -24 -3 -28 1 -34 33 -3 20 -15 40 -25 46 -17 9 -22 5 -34 -25 -8 -19
-24 -41 -36 -50 -13 -9 -19 -21 -16 -30 7 -18 -14 -27 -29 -11 -6 6 -14 20
-18 32 -7 23 -36 52 -36 36 0 -13 -62 -78 -82 -86 -10 -3 -18 -13 -18 -22 0
-8 -4 -15 -10 -15 -5 0 -10 5 -10 10 0 6 -4 10 -10 10 -13 0 -13 -37 0 -45 12
-8 13 -25 1 -25 -5 0 -11 9 -14 20 -3 11 -10 20 -17 20 -7 0 -6 -8 4 -22 18
-25 21 -42 6 -33 -5 3 -20 -1 -32 -9 -24 -15 -108 -16 -140 -2 -10 5 -26 2
-39 -7 -15 -11 -28 -13 -45 -7 -23 9 -53 4 -55 -9 -1 -3 -3 -16 -4 -29 -4 -36
-15 -39 -15 -4 0 25 -3 30 -16 25 -9 -3 -20 0 -24 7 -6 9 -10 7 -15 -9 -12
-38 -35 -25 -35 20 0 28 -4 39 -13 37 -6 -3 -13 -13 -15 -24 -5 -37 -44 -44
-149 -29 -97 15 -147 21 -243 30 -30 3 -91 10 -135 15 -78 9 -278 15 -401 12
-53 -2 -62 -5 -67 -22 -3 -11 -11 -20 -19 -19 -10 0 -10 2 0 6 6 2 12 12 12
20 0 11 -4 13 -12 6 -7 -6 -42 -16 -78 -23 -36 -7 -71 -17 -78 -23 -6 -5 -58
-18 -115 -29 -279 -51 -259 -49 -285 -32 -23 15 -24 21 -19 74 5 63 -3 80 -40
80 -19 0 -23 5 -23 29 0 17 -4 32 -9 35 -5 4 -5 23 2 47 8 33 7 43 -4 50 -10
6 -11 9 -1 9 8 0 10 8 6 24 -4 16 -1 25 10 29 9 4 16 15 16 26 0 28 46 79 79
86 40 9 74 48 121 140 39 78 189 265 212 265 12 0 107 72 108 83 0 4 9 16 20
27 11 11 20 26 20 34 0 14 76 94 129 136 18 14 40 33 49 43 9 9 20 17 25 17 4
0 13 5 20 10 7 6 24 20 38 33 28 24 54 42 109 79 43 29 45 50 5 53 -16 2 -60
6 -97 9 -44 4 -68 3 -68 -4 0 -17 -43 -11 -75 11 -16 12 -23 19 -14 16 13 -4
14 2 6 47 -5 28 -10 86 -10 130 -1 66 2 81 18 95 27 22 75 115 75 144 0 12 9
39 20 60 23 42 26 77 8 77 -7 1 2 7 20 15 32 14 44 45 17 45 -29 0 -14 17 25
29 35 10 56 31 31 31 -5 0 -9 13 -9 29 1 20 7 31 19 34 11 3 19 14 19 26 0 14
5 19 15 14 9 -3 24 2 34 11 13 12 51 21 121 28 97 10 103 10 130 -11 16 -11
40 -21 54 -21 14 0 28 -4 31 -10 3 -5 17 -10 30 -10 15 0 31 -10 40 -24 9 -13
27 -26 42 -29 20 -4 29 1 42 24 9 16 19 29 22 29 3 0 12 -18 19 -40 8 -24 20
-40 29 -40 11 0 10 -3 -5 -14 -22 -17 -26 -65 -7 -85 31 -31 133 9 133 51 0
19 3 27 38 95 26 49 27 63 7 63 -11 0 -15 12 -15 50 0 38 4 50 15 50 14 0 20
13 15 35 -1 6 -2 20 -2 32 -1 26 -11 36 -53 50 -35 12 -55 7 -55 -13 0 -8 -4
-14 -10 -14 -5 0 -10 -7 -10 -15 0 -9 -6 -15 -12 -14 -7 1 -26 -3 -41 -9 -16
-7 -32 -12 -36 -12 -5 0 -20 -9 -35 -21 l-27 -21 -34 26 c-48 37 -80 47 -110
36 -21 -8 -30 -5 -55 20 -16 16 -36 27 -44 24 -9 -3 -17 3 -21 16 -4 12 -20
27 -37 34 -28 12 -29 13 -8 19 12 3 19 10 16 16 -12 19 15 23 29 5 8 -11 15
-14 15 -7 0 6 -14 27 -30 45 -23 24 -39 33 -62 33 l-32 0 -1 68 c0 74 -12 92
-52 82 -13 -3 -23 -1 -23 5 0 5 5 10 10 10 19 0 10 30 -14 45 -14 9 -29 29
-34 45 -6 16 -19 33 -30 39 -11 6 -22 21 -26 33 -3 13 -18 36 -32 52 -23 26
-27 27 -40 14 -14 -13 -14 -19 0 -53 9 -21 16 -48 16 -62 0 -14 13 -38 30 -55
22 -22 28 -34 20 -43 -5 -7 -8 -25 -5 -41 8 -49 17 -128 17 -156 1 -16 4 -28
9 -28 4 0 7 -10 7 -23 -1 -12 -1 -48 0 -79 2 -48 5 -58 20 -58 14 -1 13 -4 -7
-21 -18 -15 -24 -29 -23 -55 2 -45 8 -54 37 -54 12 0 26 -7 29 -16 5 -14 4
-15 -9 -4 -13 11 -19 10 -35 -5 -10 -9 -24 -15 -31 -13 -15 5 -69 -46 -69 -66
0 -19 -44 -38 -80 -34 -14 1 -31 -1 -37 -5 -7 -5 -22 -3 -34 3 -11 6 -28 8
-37 4 -24 -10 -304 -13 -322 -4 -8 4 -33 10 -55 13 -21 3 -44 12 -51 21 -6 9
-17 16 -24 16 -21 0 -79 20 -142 48 -48 21 -62 24 -83 14 -14 -6 -25 -16 -25
-21 0 -13 29 -41 42 -41 6 0 29 -19 52 -42 22 -24 57 -54 76 -67 54 -36 67
-60 74 -137 5 -61 9 -72 36 -97 18 -16 42 -27 59 -27 25 0 31 7 55 59 14 32
26 61 26 65 0 22 100 80 157 90 30 5 50 -12 44 -37 -1 -5 3 -6 9 -2 16 10 25
-25 12 -46 -7 -10 -9 -24 -7 -31 3 -7 -14 -26 -38 -42 -24 -16 -51 -47 -62
-68 -12 -24 -25 -38 -37 -38 -11 0 -26 -6 -34 -14 -32 -32 -189 -32 -201 0 -3
8 -23 24 -44 35 -22 11 -39 24 -39 29 0 19 -54 10 -78 -12 -23 -23 -24 -23
-38 -4 -18 26 -26 17 -18 -22 5 -22 12 -32 25 -32 11 0 19 -5 19 -11 0 -7 -11
-9 -30 -5 -43 8 -37 -10 8 -22 20 -5 29 -10 20 -11 -10 -1 -18 -7 -18 -15 0
-7 -6 -19 -14 -25 -18 -15 -17 -51 1 -51 17 0 17 -17 1 -22 -7 -3 -13 -13 -13
-23 0 -20 -30 -43 -41 -32 -4 3 -1 13 5 21 14 16 -2 32 -20 20 -7 -4 -20 4
-30 17 -17 21 -21 22 -32 9 -6 -8 -22 -14 -35 -12 -17 3 -25 -2 -29 -17 -3
-11 -19 -25 -36 -30 -16 -6 -36 -19 -43 -30 -14 -20 -63 -35 -106 -32 -16 2
-34 -6 -46 -19 -14 -15 -27 -20 -41 -15 -14 4 -31 -1 -50 -15 -30 -21 -81 -20
-81 1 0 6 -9 5 -21 -1 -11 -7 -31 -9 -42 -6 -14 3 -37 -5 -65 -24 l-44 -29 29
-6 c15 -4 34 -8 41 -11 14 -4 16 -30 3 -39 -5 -3 -7 -20 -4 -38 4 -25 -1 -38
-21 -60 -14 -15 -26 -34 -26 -42 0 -7 -5 -15 -12 -17 -19 -7 -38 -99 -25 -123
10 -18 17 -79 8 -69 -10 10 -29 -33 -24 -54 6 -24 -24 -102 -39 -102 -4 0 -8
8 -9 18 0 9 -3 12 -5 5 -3 -7 -11 -10 -18 -7 -15 6 -30 -22 -20 -37 3 -6 -2
-25 -10 -44 -15 -31 -19 -33 -36 -23 -15 10 -23 9 -39 -6 -11 -10 -24 -15 -29
-12 -6 3 -12 -1 -16 -9 -11 -31 -26 -13 -26 31 0 43 -2 46 -23 40 -12 -3 -34
-6 -50 -6 -19 0 -33 -8 -45 -27 -9 -16 -28 -30 -42 -31 -14 -2 -33 -11 -42
-19 -22 -20 -53 -9 -43 15 4 9 13 55 19 102 10 69 15 85 29 84 9 -1 14 3 11 8
-3 5 -12 7 -19 4 -8 -3 -19 3 -27 11 -11 15 -11 16 5 10 9 -3 17 -3 17 2 0 5
-20 12 -45 15 -35 6 -45 11 -45 26 0 14 -5 18 -17 13 -13 -5 -15 -1 -10 23 3
18 0 37 -9 48 -21 29 -17 36 11 23 14 -7 25 -16 25 -21 0 -11 29 25 30 37 0 4
-13 7 -30 7 -20 0 -30 5 -30 15 0 8 9 15 19 15 11 0 33 11 49 25 17 14 35 25
42 25 6 0 10 6 7 13 -2 7 -16 11 -32 9 -22 -2 -26 0 -22 12 5 12 0 16 -17 16
-13 0 -26 -7 -30 -15 -10 -26 -29 -17 -22 10 5 18 2 25 -9 25 -8 0 -15 -7 -15
-15 0 -18 -45 -49 -59 -41 -15 10 -43 -5 -37 -20 7 -19 -6 -18 -44 4 -29 16
-31 16 -41 -1 -5 -9 -15 -17 -21 -17 -5 0 -30 -13 -54 -29 -47 -32 -52 -31
-52 12 1 33 -10 47 -21 28 -7 -10 -9 -11 -13 -1 -3 10 -9 10 -27 1 -12 -7 -29
-10 -37 -7 -8 3 -14 -1 -14 -9 0 -30 -24 -65 -56 -80 -19 -9 -34 -21 -34 -27
0 -6 -3 -9 -6 -5 -4 3 3 22 15 42 11 20 21 47 21 61 0 15 6 24 15 24 8 0 15 6
15 14 0 8 11 23 25 34 29 23 33 45 8 40 -10 -1 -20 2 -22 7 -3 6 4 12 15 13
10 2 24 8 29 14 6 6 3 7 -10 2 -11 -4 -17 -4 -13 1 11 11 -11 35 -32 35 -16 0
-16 3 -4 38 7 20 13 45 14 55 0 9 4 17 9 17 4 0 20 18 35 40 14 22 22 40 16
40 -5 0 -10 7 -10 15 0 10 10 15 28 15 19 0 35 10 54 34 27 33 27 35 8 41 -11
4 -20 10 -20 13 0 15 62 82 75 82 7 0 22 11 32 24 10 13 28 26 39 30 26 8 51
54 48 89 -2 17 3 30 12 34 19 7 18 33 -2 33 -9 0 -14 5 -12 11 2 6 7 10 11 9
18 -3 51 54 50 86 -1 34 27 74 51 74 8 0 29 22 47 49 28 41 35 46 45 33 9 -12
17 -13 42 -4 26 9 35 8 57 -10 20 -15 35 -19 62 -15 20 4 39 10 42 16 3 5 33
25 66 44 33 19 70 46 82 59 25 27 46 76 37 89 -3 5 2 9 11 9 8 0 18 7 21 15 3
8 14 17 24 20 11 3 25 22 32 40 6 19 15 30 18 25 4 -6 7 15 8 46 1 41 -4 64
-18 83 -18 26 -22 27 -100 24 -93 -4 -176 12 -147 28 22 13 22 35 0 44 -15 5
-11 10 19 26 41 21 50 39 20 39 -10 0 -26 6 -36 13 -17 13 -17 14 8 30 29 20
33 39 11 57 -8 7 -15 21 -15 30 0 10 -6 21 -12 23 -18 8 10 27 39 27 30 0 37
15 18 43 -8 13 -13 31 -10 40 4 8 1 18 -5 22 -13 8 37 71 54 68 22 -5 36 52
33 134 -2 64 -7 86 -22 105 -22 25 -51 49 -75 61 -8 4 -1 5 15 1 17 -3 37 -12
46 -20 8 -8 19 -14 22 -14 12 0 7 34 -8 54 -10 13 -11 24 -4 37 13 24 1 67
-21 79 -10 5 -28 18 -41 29 -70 60 -139 111 -148 111 -5 0 -16 6 -23 13 -7 7
-31 26 -53 42 -22 17 -42 32 -45 35 -3 3 -36 26 -74 50 -38 25 -74 48 -80 52
-6 4 -7 10 -4 14 4 3 20 -3 36 -15 33 -23 74 -28 70 -9 -4 18 31 22 50 5 21
-19 68 -38 76 -30 8 9 -26 32 -46 33 -10 0 -18 4 -18 10 0 5 -19 18 -42 30
-35 16 -38 19 -15 16 15 -2 27 1 27 6 0 6 22 8 50 6 50 -3 66 5 31 17 -10 3
-22 17 -25 30 -4 14 -10 25 -15 25 -5 0 -22 13 -38 30 -15 16 -36 30 -46 30
-10 0 -16 4 -12 9 3 6 -13 28 -36 51 -22 22 -42 47 -43 55 -1 8 -14 27 -28 42
-39 42 -178 232 -178 243 0 6 -4 10 -8 10 -10 0 -73 82 -67 88 6 6 95 -92 120
-133 49 -79 166 -184 165 -147 -1 13 -40 57 -40 45 0 -7 -4 -13 -9 -13 -5 0
-4 13 2 29 6 17 15 27 20 24 4 -3 11 4 14 16 5 21 35 30 31 9 -4 -15 101 -53
113 -41 6 6 6 25 -1 49 -8 35 -9 35 -6 7 3 -37 2 -37 -43 -22 -37 13 -40 24
-8 33 l22 6 -20 18 c-12 9 -24 25 -28 35 -3 9 -13 17 -22 17 -8 0 -14 6 -13
13 2 7 -10 13 -27 15 -16 2 -42 15 -58 28 -16 13 -35 24 -43 24 -20 0 -17 17
7 41 21 21 29 21 66 -7 21 -15 23 -15 29 0 6 14 9 14 35 -1 27 -16 29 -16 49
2 l21 19 -25 13 c-16 9 -23 19 -19 29 4 10 -4 18 -26 27 -17 6 -31 17 -31 24
0 7 -4 13 -10 13 -5 0 -10 9 -10 20 0 30 -55 80 -88 80 -34 0 -55 20 -46 43 3
10 -2 18 -18 23 -13 4 -37 22 -54 40 -17 19 -40 34 -51 34 -12 0 -23 7 -27 15
-3 8 -13 15 -22 15 -24 0 -74 32 -74 48 0 9 -10 13 -27 11 -16 -2 -38 2 -49 9
-18 9 -24 9 -34 -3 -8 -9 -21 -13 -31 -10 -13 4 -19 1 -19 -9 0 -9 4 -16 8
-16 5 0 16 -19 26 -42 11 -24 26 -51 34 -61 12 -13 13 -20 4 -29 -9 -9 -12 -7
-12 8 0 19 -5 21 -67 18 -38 -1 -72 -3 -78 -3 -5 -1 1 -10 15 -21 14 -11 21
-20 15 -20 -16 0 -77 23 -120 46 -25 13 -61 22 -94 22 -30 1 -61 4 -70 7 -9 2
-23 0 -31 -5 -13 -9 -13 -11 0 -20 8 -5 31 -10 50 -10 19 0 42 -4 50 -10 9 -5
19 -5 27 2 10 8 13 6 13 -6 0 -9 -4 -16 -10 -16 -14 0 -12 -18 3 -23 15 -5
-39 3 -72 10 -16 4 -22 2 -17 -6 4 -6 16 -11 26 -11 11 0 30 -11 44 -25 15
-15 37 -25 53 -25 15 0 41 -7 57 -15 16 -9 35 -14 41 -11 7 2 20 -9 29 -25 16
-27 29 -33 66 -30 20 1 46 -16 37 -25 -11 -11 -70 -14 -82 -4 -17 14 -92 28
-106 19 -10 -6 -10 -10 1 -23 7 -9 11 -17 9 -19 -2 -1 -13 -7 -23 -13 -32 -17
-31 -34 2 -34 18 0 32 -6 36 -16 6 -14 1 -16 -36 -10 -24 4 -44 11 -46 16 -2
6 -10 10 -18 10 -8 0 -14 5 -14 10 0 13 -73 13 -87 -1 -7 -7 -12 -6 -16 5 -4
9 -2 16 3 16 6 0 10 5 10 11 0 7 8 18 18 25 16 13 16 13 0 14 -10 0 -18 -4
-18 -10 0 -13 -12 -13 -46 0 -33 13 -26 21 23 30 l38 6 -50 25 c-27 14 -58 24
-69 21 -11 -2 -16 0 -12 7 4 6 -5 13 -20 17 -22 6 -24 8 -10 16 36 20 2 63
-42 51 -12 -3 -29 0 -37 7 -9 8 -15 8 -15 2 0 -6 5 -12 12 -14 7 -3 8 -10 3
-17 -6 -11 -10 -10 -17 3 -9 16 -49 22 -62 9 -8 -9 -13 -9 -71 -11 -48 -2 -54
-20 -26 -76 14 -26 21 -32 30 -23 8 8 11 6 11 -9 0 -28 10 -36 28 -21 13 10
14 8 8 -15 -4 -18 -2 -28 5 -28 7 0 9 -12 5 -34 -6 -29 -3 -35 14 -41 11 -3
23 -17 26 -31 3 -13 12 -24 20 -24 17 0 18 -12 2 -28 -9 -9 -8 -12 4 -12 9 0
18 6 20 12 7 21 64 -43 71 -80 6 -28 4 -35 -12 -39 -11 -3 -21 -14 -23 -25 -3
-18 -12 -22 -63 -25 -66 -5 -80 -11 -47 -20 27 -7 29 -23 2 -23 -11 0 -19 -3
-19 -7 3 -21 -3 -23 -23 -9 -12 9 -35 16 -50 16 -14 0 -34 8 -44 17 -24 25
-62 43 -89 43 -13 0 -26 7 -29 16 -9 22 -8 24 9 24 8 0 15 5 15 11 0 7 -10 9
-24 5 -31 -8 -38 3 -20 29 8 10 14 13 14 7 0 -7 7 -12 15 -12 23 0 -29 46 -62
54 -15 4 -43 7 -60 6 -18 0 -33 4 -33 10 0 21 -20 9 -20 -12 -1 -22 -2 -21
-28 8 -40 46 -59 49 -54 9 3 -26 0 -33 -17 -38 -13 -3 -21 -13 -21 -26 0 -12
-6 -21 -15 -21 -8 0 -24 -9 -36 -21 -16 -16 -18 -23 -8 -35 6 -8 22 -14 35
-14 42 0 25 -19 -23 -26 -53 -8 -81 -12 -103 -13 -12 -1 -11 -5 5 -16 18 -15
18 -16 -15 -45 -35 -29 -48 -34 -82 -31 -24 3 -23 -16 1 -29 29 -15 41 -12 34
7 -4 11 -3 14 5 9 7 -4 12 -13 12 -21 0 -19 19 -29 33 -16 8 6 18 6 27 1 13
-8 12 -10 -3 -10 -9 0 -27 -6 -40 -12 -12 -7 -24 -14 -26 -15 -2 -1 9 -13 24
-27 21 -19 25 -29 17 -39 -8 -10 -3 -16 20 -26 29 -13 30 -15 12 -28 -10 -7
-25 -11 -32 -8 -19 7 -42 -13 -42 -36 0 -14 -9 -21 -31 -26 -23 -4 -29 -10
-27 -27 1 -11 -1 -26 -5 -33 -5 -7 1 -21 13 -33 11 -11 20 -26 20 -32 0 -10
-2 -10 -8 0 -12 19 -123 -5 -115 -25 3 -8 -4 -27 -16 -43 -11 -16 -21 -34 -21
-40 0 -6 -11 -16 -25 -22 -14 -6 -25 -17 -25 -25 0 -7 -11 -18 -25 -23 -14 -5
-25 -14 -25 -20 0 -12 59 -10 66 2 7 11 44 10 44 -2 0 -13 -34 -30 -62 -30
-30 -1 -73 -34 -63 -49 4 -7 14 -10 22 -7 18 7 45 -12 37 -25 -3 -5 0 -17 6
-26 11 -17 11 -17 6 0 -4 12 0 17 14 17 10 0 22 -4 25 -10 3 -6 0 -10 -8 -10
-8 0 -17 -6 -20 -14 -3 -8 -26 -22 -52 -31 -43 -17 -46 -17 -58 -1 -8 11 -23
16 -35 14 -35 -5 -31 -23 6 -26 17 -2 32 -8 32 -14 0 -7 14 -8 41 -4 39 6 78
-12 61 -29 -4 -3 1 -11 11 -16 11 -7 17 -22 17 -44 0 -19 5 -37 10 -40 18 -11
10 -25 -14 -25 -13 0 -29 -7 -36 -15 -11 -13 -8 -15 18 -15 42 0 92 -11 92
-20 0 -5 -13 -11 -30 -15 -25 -6 -28 -9 -20 -25 19 -36 12 -43 -35 -38 -30 4
-48 1 -56 -8 -6 -7 -31 -16 -55 -20 -24 -3 -44 -11 -44 -18 0 -13 -37 -48 -67
-65 -26 -13 -30 -31 -8 -31 25 0 76 30 70 40 -4 6 1 10 10 10 8 0 23 9 32 20
18 21 69 27 75 9 2 -7 12 -7 31 2 19 9 33 9 49 2 17 -7 29 -6 44 3 28 19 65
-6 56 -38 -4 -17 -2 -20 12 -15 20 8 66 -1 66 -13 0 -5 -9 -6 -20 -3 -16 4
-20 1 -18 -18 2 -19 -1 -23 -18 -21 -11 1 -28 -6 -38 -17 -17 -18 -16 -19 48
-19 47 0 66 3 70 14 6 15 36 20 36 5 0 -5 7 -16 15 -25 13 -12 21 -13 41 -4
18 8 28 8 36 0 15 -15 -68 -38 -86 -23 -7 6 -16 8 -19 5 -10 -10 17 -44 35
-44 10 0 18 -7 18 -15 0 -8 7 -15 15 -15 8 0 15 -6 15 -14 0 -11 -9 -13 -35
-9 -23 4 -35 2 -35 -6 0 -6 6 -11 13 -11 6 -1 -1 -8 -16 -16 -15 -8 -25 -19
-23 -23 8 -12 58 -1 78 16 9 8 22 12 27 8 18 -10 12 -25 -9 -25 -11 0 -20 -4
-20 -10 0 -5 9 -10 21 -10 12 0 36 -7 55 -16 32 -15 33 -18 19 -34 -22 -24
-19 -43 6 -37 25 7 51 -2 43 -14 -3 -5 -17 -10 -32 -10 -24 -2 -24 -2 -4 -6
22 -4 31 -23 11 -23 -6 0 -9 -6 -6 -14 3 -7 0 -19 -6 -25 -8 -8 -6 -11 8 -12
11 -1 23 -1 28 0 14 2 7 -20 -8 -25 -8 -4 -15 -13 -15 -20 0 -11 4 -12 19 -4
25 13 53 14 32 1 -8 -5 -10 -14 -6 -21 6 -10 -1 -11 -31 -6 l-39 6 34 -15 c42
-19 56 -19 76 1 15 15 17 15 30 -2 16 -22 9 -40 -9 -25 -13 11 -26 5 -26 -10
0 -5 7 -6 15 -3 8 4 15 2 15 -4 0 -5 10 -12 22 -15 21 -6 21 -7 5 -25 -17 -19
-17 -20 5 -27 13 -3 36 -7 52 -8 39 -3 47 -27 9 -27 -17 0 -33 -8 -41 -20 -14
-24 -10 -25 26 -6 37 18 116 13 120 -8 2 -10 -3 -16 -15 -16 -11 0 -28 -7 -39
-15 -18 -14 -17 -14 14 -15 22 0 32 -5 32 -15 0 -11 -11 -15 -36 -15 -38 0
-74 -15 -74 -30 0 -6 14 -10 30 -10 20 0 30 5 30 15 0 17 16 20 26 4 3 -6 17
-8 30 -5 32 8 30 -4 -6 -39 -16 -16 -30 -35 -30 -42 0 -15 36 -18 45 -3 12 19
45 11 45 -10 0 -11 -5 -20 -12 -20 -6 0 -9 -3 -6 -6 4 -3 17 0 30 7 30 17 129
39 140 33 5 -3 5 -11 -1 -17 -5 -7 -9 -16 -8 -21 1 -5 -6 -10 -17 -12 -22 -3
-47 -24 -29 -24 7 0 15 5 18 10 5 8 11 7 21 -1 7 -6 12 -15 9 -19 -3 -5 -2
-11 2 -13 9 -5 196 18 231 29 13 4 22 2 22 -5 0 -6 -12 -11 -27 -11 -14 0 -34
-6 -42 -14 -9 -8 -61 -23 -116 -34 -178 -37 -210 -46 -213 -64 -3 -16 -1 -16
25 -3 15 8 39 15 52 15 23 0 24 -1 6 -20 -10 -11 -28 -20 -41 -20 -28 0 -74
-20 -74 -32 0 -18 56 -6 161 37 122 49 119 48 119 38 0 -12 -240 -123 -264
-123 -7 0 -39 -11 -70 -25 -31 -14 -61 -25 -67 -25 -6 0 -36 -12 -67 -27 -31
-15 -68 -28 -82 -28 -14 0 -36 -8 -50 -18 -14 -9 -39 -16 -55 -15 -17 1 -43
-1 -60 -4 -28 -7 -28 -6 5 8 42 19 100 62 100 74 0 20 55 99 72 103 10 3 18
12 18 21 0 22 -8 20 -46 -9 -35 -27 -52 -19 -34 15 14 27 9 25 -31 -10 -39
-34 -54 -37 -68 -12 -10 16 -13 15 -34 -9 -30 -33 -54 -43 -52 -20 0 9 4 22 9
29 14 23 -10 12 -39 -18 -31 -32 -55 -39 -55 -16 0 25 12 46 26 46 16 0 19 21
4 36 -14 14 1 49 20 49 8 0 16 10 18 23 2 12 -1 22 -6 22 -10 0 -42 -33 -42
-43 0 -4 -9 -16 -20 -27 -20 -20 -21 -20 -45 -3 -13 10 -25 24 -25 31 0 6 -4
12 -9 12 -16 0 -23 -20 -13 -33 5 -7 8 -20 6 -30 -3 -22 -14 -36 -14 -19 0 7
-5 12 -11 12 -5 0 -7 -5 -4 -10 3 -6 -3 -10 -14 -10 -12 0 -21 7 -21 15 0 8 5
15 10 15 6 0 10 9 10 20 0 10 17 36 37 57 32 31 38 34 41 19 3 -16 6 -15 20 5
11 16 12 24 4 27 -24 8 -12 24 14 18 18 -5 24 -3 18 5 -9 15 35 97 56 103 13
3 13 4 -1 5 -9 0 -33 -15 -53 -35 -25 -24 -41 -33 -48 -26 -11 11 -88 -22 -88
-38 0 -6 -4 -10 -9 -10 -16 0 -3 39 24 71 14 17 25 34 25 39 0 5 8 11 18 14
18 6 46 56 32 56 -5 0 -12 -4 -15 -10 -3 -5 -13 -10 -21 -10 -15 0 -82 -45
-95 -64 -4 -4 -15 -3 -25 3 -11 6 -13 11 -6 11 7 0 11 4 8 9 -6 10 -33 8 -59
-4 -15 -6 -16 -10 -5 -17 9 -7 8 -8 -6 -4 -13 5 -27 -3 -47 -26 -16 -17 -29
-38 -29 -45 0 -7 -4 -13 -9 -13 -19 0 -22 20 -7 42 9 12 16 30 16 39 0 10 11
20 25 23 14 4 25 11 25 17 0 6 -4 7 -10 4 -5 -3 -10 0 -10 8 0 7 11 19 25 25
14 6 25 19 25 27 0 9 14 34 31 55 19 23 29 45 26 54 -4 10 -1 16 7 16 14 0
106 81 106 93 0 4 -7 7 -15 7 -8 0 -15 -7 -15 -17 0 -9 -3 -14 -6 -10 -3 3
-24 -5 -45 -19 -21 -13 -42 -24 -47 -24 -5 0 -15 -12 -23 -27 -8 -15 -22 -35
-31 -45 -17 -17 -18 -17 -18 1 0 11 5 23 10 26 16 10 1 25 -18 18 -9 -4 -41
-30 -69 -59 -38 -37 -63 -53 -90 -58 -54 -9 -75 -7 -68 4 3 5 1 10 -5 10 -7 0
-5 9 4 22 9 12 16 30 16 40 0 9 9 22 21 28 12 7 18 18 15 26 -3 8 1 14 8 14
19 0 42 30 29 38 -20 13 -10 41 19 51 15 6 28 14 28 19 0 5 9 12 21 15 12 3
18 10 15 15 -6 11 17 34 30 30 33 -8 70 31 44 47 -5 3 -7 12 -3 20 3 10 -1 15
-11 15 -9 0 -20 -10 -25 -22 l-8 -23 -7 23 c-5 13 -3 29 4 37 9 11 6 16 -11
26 l-23 12 35 28 c24 20 29 29 17 29 -9 0 -20 -5 -23 -10 -4 -6 -15 -8 -26 -5
-11 4 -47 -3 -80 -14 -33 -12 -79 -23 -103 -25 -36 -4 -42 -1 -43 15 -1 13 6
21 25 24 55 12 103 29 110 39 4 6 20 16 36 21 33 11 37 28 8 33 -24 4 -171
-55 -198 -79 -11 -10 -25 -19 -30 -19 -5 0 -26 -18 -47 -40 -24 -26 -45 -40
-62 -40 -14 0 -25 -4 -25 -9 0 -13 -34 -23 -54 -15 -13 5 -5 17 41 59 60 54
65 78 13 58 -44 -16 -37 4 8 23 72 32 87 42 101 72 8 17 26 36 40 43 14 7 40
28 58 46 18 18 41 33 52 33 11 0 23 4 26 10 10 16 -85 4 -140 -18 -124 -49
-135 -55 -135 -73 0 -30 -29 -49 -75 -49 -27 0 -45 -5 -48 -14 -3 -7 -22 -16
-41 -18 -43 -5 -48 7 -7 15 15 3 42 18 60 32 17 15 31 22 31 16 0 -15 22 -14
43 1 24 19 12 58 -19 58 -16 0 -22 -5 -18 -14 3 -9 -5 -15 -24 -19 -16 -3 -36
-12 -43 -19 -16 -15 -69 -20 -69 -7 0 5 12 15 28 21 32 14 55 36 65 61 5 15 2
16 -21 11 -15 -3 -40 -10 -55 -16 -20 -8 -35 -8 -53 1 -34 15 -41 14 -47 -9
-3 -13 -14 -20 -29 -21 -12 0 -42 -2 -65 -4 -24 -2 -43 0 -43 4 0 12 50 32 61
25 16 -10 69 7 69 22 0 17 -14 18 -42 3 -15 -8 -26 -8 -44 1 -32 18 -133 6
-179 -20 -26 -15 -41 -18 -54 -11 -10 6 -37 9 -60 8 -28 -1 -45 4 -51 13 -7
10 -10 11 -10 3 0 -7 -9 -13 -19 -13 -11 0 -26 -9 -34 -21 -11 -15 -16 -17
-20 -7 -3 7 -6 3 -6 -9 -1 -31 -17 -37 -53 -19 -41 21 -55 20 -69 -5 -9 -18
-17 -20 -49 -16 -41 5 -50 -3 -50 -45 0 -19 -4 -20 -56 -15 -45 5 -59 2 -73
-12 -23 -23 -69 -33 -139 -31 -49 1 -53 -1 -48 -18 8 -23 -15 -45 -38 -36 -19
7 -20 16 -4 32 9 9 8 12 -6 12 -9 0 -24 -7 -32 -15 -11 -10 -36 -14 -90 -13
-48 1 -79 -3 -87 -11 -9 -10 -9 -11 4 -6 8 3 26 2 40 -3 l24 -10 -27 -12 c-23
-11 -29 -10 -43 4 -19 18 -31 20 -40 6 -20 -32 -89 -50 -246 -65 -168 -16
-242 -13 -270 12 -10 8 -46 15 -90 18 -41 2 -77 4 -81 4 -4 1 -10 10 -13 21
-3 11 -13 20 -21 20 -7 0 -22 17 -31 37 -11 22 -27 39 -38 41 -11 2 -38 22
-60 45 l-40 42 0 90 c0 96 14 131 60 151 11 5 21 19 23 32 2 12 9 22 17 22 19
0 75 49 75 66 0 8 4 14 8 14 14 0 72 52 72 65 0 6 16 19 35 28 20 9 39 25 42
34 7 20 50 63 62 63 4 0 17 11 29 25 12 14 31 25 41 25 11 0 23 5 26 10 3 6
34 10 68 10 54 1 60 2 45 14 -24 18 -23 43 3 51 19 6 19 8 4 19 -15 11 -15 14
-2 24 8 7 30 14 48 15 34 2 85 37 55 37 -8 0 -16 -6 -19 -12 -3 -10 -9 -8 -23
4 -34 33 11 32 81 -1 77 -37 75 -36 75 -12 0 11 7 26 15 35 8 8 15 19 15 25 0
5 9 12 19 16 10 3 21 15 24 25 4 15 10 18 24 13 17 -7 17 -8 0 -11 -26 -5 -10
-22 22 -22 15 0 35 8 45 19 22 24 39 81 24 81 -7 0 -9 21 -5 60 4 46 2 60 -8
60 -8 0 -17 -4 -20 -10 -11 -18 -40 -10 -58 16 -14 18 -16 28 -8 38 8 10 6 17
-8 31 -11 9 -23 30 -26 46 -4 16 -11 31 -16 34 -15 10 -10 25 5 19 19 -7 67
18 58 31 -4 6 -19 18 -34 28 -21 13 -33 15 -53 7 -30 -11 -45 -6 -45 16 0 8
-9 24 -20 36 -24 26 -25 37 -5 44 21 8 18 25 -8 55 -22 24 -46 39 -76 45 -7 1
-23 11 -35 21 -11 11 -34 27 -50 37 -20 13 -25 20 -16 26 10 6 9 18 -5 54 -10
26 -15 50 -11 53 4 4 47 -34 96 -84 50 -51 108 -101 132 -112 24 -11 50 -25
58 -30 8 -6 36 -20 63 -31 26 -11 47 -24 47 -29 0 -12 72 -81 85 -81 7 0 19
-8 28 -18 9 -10 33 -19 54 -20 21 -2 41 -8 45 -15 5 -8 8 -4 8 10 0 25 34 40
55 23 8 -6 14 -7 17 -1 3 9 49 14 121 12 33 -1 37 -4 37 -26 0 -21 -5 -25 -29
-25 -17 0 -33 5 -36 10 -10 17 -32 11 -38 -10 -4 -17 -8 -18 -34 -8 -17 6 -39
8 -49 4 -17 -7 -17 -9 -3 -19 9 -7 19 -22 23 -34 4 -12 28 -38 54 -59 26 -21
49 -42 50 -46 2 -5 10 -8 18 -8 8 0 14 -3 14 -8 0 -11 92 -69 141 -89 24 -9
49 -22 55 -28 6 -6 31 -19 55 -29 24 -10 52 -22 62 -27 19 -10 63 12 50 24 -3
4 1 7 9 7 9 0 18 -7 22 -15 3 -8 27 -25 53 -37 44 -20 131 -74 143 -89 12 -14
99 -27 140 -22 60 8 150 48 150 67 0 10 12 16 37 18 35 3 61 28 28 28 -13 0
-14 4 -5 20 7 12 21 20 38 20 24 1 25 2 9 11 -11 6 -42 8 -75 5 -32 -4 -64 -2
-72 3 -18 12 -12 15 73 31 33 7 66 19 76 28 16 16 41 30 86 48 16 7 13 9 -17
12 -34 3 -43 10 -40 33 1 4 -20 6 -46 6 -26 -1 -56 3 -66 8 -14 6 -17 5 -12
-3 5 -8 -4 -12 -29 -12 -28 0 -36 4 -32 14 4 9 -3 16 -19 20 -13 4 -24 11 -24
16 0 6 -31 10 -69 10 -69 0 -98 13 -70 31 8 5 32 9 54 9 23 0 67 7 98 15 32 8
66 15 76 15 11 0 21 7 25 15 6 16 54 18 111 6 27 -6 26 -7 -25 -20 -30 -7 -59
-16 -65 -20 -5 -3 -37 -10 -69 -16 -33 -5 -61 -16 -64 -22 -5 -18 115 -17 190
1 34 8 60 10 64 5 3 -5 -10 -10 -28 -10 -18 -1 -25 -3 -15 -6 9 -2 17 -10 17
-18 0 -14 21 -25 49 -25 10 0 32 -7 50 -16 18 -9 35 -13 38 -10 4 3 1 6 -6 6
-8 0 -11 6 -7 16 4 9 1 23 -5 30 -9 11 -9 14 0 14 7 0 9 5 6 10 -3 6 -23 10
-43 11 l-37 0 43 17 c41 16 58 42 26 42 -9 0 -14 8 -13 18 1 9 0 19 -1 22 -1
3 -3 24 -5 48 -2 30 1 45 11 49 7 3 23 21 35 40 19 30 20 38 9 59 -8 13 -19
24 -27 24 -7 0 -22 5 -32 12 -15 9 -17 15 -8 30 9 14 8 20 -5 30 -14 11 -16
20 -8 53 5 24 5 44 -1 51 -6 7 -4 15 5 23 19 16 2 68 -25 76 -10 4 -19 15 -19
26 0 11 -10 23 -24 29 -17 6 -24 16 -23 36 0 15 -7 32 -15 38 -24 19 -59 84
-49 91 6 3 8 12 5 19 -3 8 0 17 5 21 15 9 4 24 -26 36 -13 5 -21 13 -18 19 9
15 32 12 60 -6 15 -10 25 -12 25 -5 0 6 -4 11 -10 11 -5 0 -10 7 -10 16 0 12
-6 15 -26 10 -22 -6 -25 -4 -22 16 2 13 -1 23 -7 23 -5 0 -20 10 -32 23 -13
12 -28 22 -34 22 -8 0 -10 15 -6 48 6 53 -8 82 -40 82 -21 0 -73 -42 -73 -59
0 -5 -16 -18 -35 -30 -22 -12 -33 -25 -29 -34 7 -18 -96 -62 -124 -52 -11 3
-23 2 -26 -4 -3 -5 -15 -7 -26 -4 -13 4 -20 0 -20 -10 0 -24 -25 -38 -74 -40
-41 -2 -46 -5 -51 -29 -4 -15 -18 -36 -32 -46 -14 -10 -26 -29 -27 -43 0 -13
-5 -25 -11 -25 -30 -4 -55 -18 -55 -31 0 -8 -19 -33 -42 -56 -38 -37 -40 -42
-22 -45 12 -2 46 8 75 21 30 13 72 27 94 31 22 4 51 16 65 25 29 21 66 31 133
37 29 2 46 0 42 -6 -3 -6 -10 -10 -16 -10 -5 0 -19 -9 -32 -20 -81 -71 -222
-124 -329 -125 -27 0 -48 -3 -48 -7 0 -15 -33 -38 -56 -38 -26 0 -134 -56
-134 -70 0 -9 -62 -40 -79 -40 -14 0 -7 80 23 272 2 15 1 43 -4 62 -7 33 -5
37 26 55 26 16 34 27 34 50 0 16 -5 31 -12 33 -6 2 -12 15 -13 29 -1 13 -5 32
-9 41 -6 14 1 21 33 34 l41 16 0 57 c0 31 5 62 12 69 8 8 5 14 -16 22 -15 5
-31 10 -36 10 -11 0 -60 51 -60 62 0 5 7 8 15 8 9 0 20 11 27 25 6 13 15 22
20 19 5 -4 19 4 30 16 11 12 28 20 37 17 29 -7 18 34 -14 51 -16 8 -33 19 -39
24 -6 5 -20 15 -31 22 -31 22 -3 46 51 46 40 0 49 6 42 27 -2 4 -12 6 -23 5
-15 -2 -17 -1 -7 6 8 5 15 21 15 36 2 23 17 39 17 17 0 -5 11 -11 25 -13 27
-6 35 9 10 18 -8 4 -12 10 -10 15 6 9 -30 49 -45 49 -5 0 -21 18 -35 40 -14
22 -36 42 -50 46 -31 8 -33 24 -2 25 38 2 51 -1 79 -22 15 -10 36 -19 47 -19
11 0 26 -9 34 -20 16 -23 57 -40 99 -40 26 0 29 2 18 15 -7 8 -19 15 -28 15
-8 0 -27 13 -41 28 -14 16 -47 40 -72 55 -42 24 -55 42 -65 87 -1 8 -6 25 -9
37 -7 21 -4 22 61 25 l69 3 -45 30 c-25 16 -54 39 -66 50 -11 11 -31 28 -43
38 -12 10 -21 23 -18 30 6 17 84 9 130 -14 24 -13 37 -15 37 -8 0 9 19 10 65
6 41 -4 64 -3 60 3 -3 6 -16 10 -28 10 -36 1 -57 24 -57 64 0 29 4 36 20 36
11 0 20 -4 20 -9 0 -13 39 -21 46 -9 3 5 -1 17 -10 27 -20 22 -20 31 -1 31 24
0 17 18 -13 34 -43 24 4 20 53 -4 39 -19 75 -26 75 -14 0 12 -35 64 -43 64 -5
0 -7 11 -5 24 1 13 -3 30 -10 39 -8 9 -12 24 -10 33 4 21 28 31 28 12 0 -7 14
-21 31 -30 47 -27 88 -22 60 7 -5 6 -11 24 -13 40 -2 24 -12 35 -51 54 -50 26
-56 40 -10 24 l28 -10 2 49 c2 41 -2 54 -22 74 -13 13 -36 41 -51 61 -36 49
-80 103 -101 125 -24 26 -7 35 28 16 16 -10 36 -15 44 -12 8 4 25 -6 39 -23
13 -15 28 -24 33 -20 4 5 -12 27 -37 49 l-45 41 31 -6 c17 -3 35 -2 40 3 6 6
23 6 44 0 56 -16 57 -13 4 43 -28 28 -54 60 -57 69 -9 24 17 42 42 29 36 -20
84 -13 104 14 10 14 15 30 12 35 -3 5 -1 19 6 32 9 18 9 24 -6 34 -27 20 -15
48 25 55 31 6 32 7 7 8 -15 0 -30 8 -33 16 -3 8 -15 17 -27 21 -18 6 -19 7 -3
16 12 7 32 4 66 -8 57 -21 71 -15 41 17 -12 13 -21 28 -21 35 0 16 65 27 89
14 27 -14 40 -12 21 3 -8 7 -15 21 -15 31 0 12 -16 29 -43 45 -51 31 -81 69
-62 81 7 4 21 5 31 3 11 -3 26 1 35 8 17 14 20 15 62 17 28 2 28 13 -3 58 -22
33 -25 45 -21 102 5 62 4 65 -27 93 -17 16 -39 29 -49 29 -20 0 -34 18 -22 30
9 9 130 -18 186 -41 21 -8 31 -7 52 6 14 10 26 20 26 24 0 4 -15 32 -34 63
l-34 56 34 -5 c47 -8 74 17 74 69 0 42 18 50 54 23 18 -14 21 -13 32 12 10 25
9 31 -14 55 -34 37 -23 44 27 18 41 -20 68 -19 55 2 -4 6 0 16 9 23 15 11 12
14 -23 30 -45 20 -52 35 -16 35 20 0 23 4 19 23 -3 12 -12 29 -19 38 -8 9 -11
19 -7 22 15 16 54 4 112 -33 91 -59 110 -54 106 27 -2 28 2 43 11 47 15 6 14
9 -15 64 -11 21 -13 97 -3 115 2 4 15 1 28 -8 26 -17 44 -13 44 10 0 8 9 19
20 25 11 6 20 17 20 24 0 7 22 23 49 36 48 22 51 22 90 6 55 -21 54 -21 48 19
-3 19 -1 37 4 40 15 10 10 56 -13 122 -12 35 -19 66 -15 70 4 3 25 -8 46 -25
22 -18 44 -32 50 -32 10 0 18 33 23 95 2 21 8 29 18 26 35 -8 45 -5 48 17 4
25 27 30 36 6 3 -8 3 -26 0 -38 -4 -17 1 -25 21 -36 22 -12 28 -12 43 4 14 14
15 18 3 26 -12 7 -12 11 -2 23 8 10 9 17 1 22 -20 12 -10 46 24 81 33 34 37
35 68 25 39 -13 111 7 116 32 5 25 34 25 67 2 75 -55 101 -38 90 56 l-7 61 33
-7 c19 -4 43 -9 54 -11 13 -3 28 3 39 15 24 26 56 27 86 1 31 -27 40 -25 40
10 0 36 28 97 48 105 7 3 21 1 30 -4 9 -5 26 -5 40 0 13 5 29 6 34 2 23 -14
135 -6 162 12 23 15 26 24 26 75 0 83 16 91 70 34 46 -49 73 -53 78 -14 5 34
20 50 48 50 14 0 24 6 24 14 0 24 27 44 53 39 26 -5 103 42 136 82 22 29 38
31 86 11 27 -12 39 -12 59 -3 14 7 26 17 26 23 0 17 53 61 82 68 15 3 32 15
38 25 17 33 83 101 97 101 7 0 13 4 13 9 0 4 11 6 24 4 13 -3 36 3 50 12 20
13 37 16 71 11 37 -6 47 -4 62 13 10 12 24 21 33 21 9 0 23 9 33 20 19 23 42
25 76 6 31 -17 59 -10 95 26 26 26 35 28 90 27 34 -1 71 1 83 5 13 4 45 -3 84
-19 34 -14 66 -25 71 -25 14 0 107 -63 146 -97 19 -18 39 -33 44 -33 5 0 20
12 34 27 l25 27 49 -18 c49 -18 50 -18 85 4 19 12 42 31 49 42 16 22 13 22
131 -2 22 -4 66 -13 98 -20 57 -11 97 -7 97 11 0 23 85 148 108 159 14 6 54
14 89 17 53 5 67 10 80 29 9 14 35 30 64 38 27 9 69 31 93 51 47 38 55 40 101
24 26 -10 38 -8 73 9 34 17 47 18 71 9 33 -12 74 1 110 34 12 11 50 34 84 51
34 17 87 53 117 80 30 27 67 52 83 55 15 3 30 9 32 13 3 5 14 6 25 3 13 -4 39
7 73 30 125 82 164 92 233 55 39 -20 43 -21 59 -5 9 9 20 17 23 17 4 0 30 21
57 46 52 47 102 74 139 74 33 0 129 39 146 59 16 19 72 51 91 51 40 0 134 33
209 73 41 22 77 42 80 46 12 15 50 30 93 36 26 4 67 20 92 36 29 18 76 35 130
45 47 10 85 21 85 25 0 4 17 13 38 20 20 6 40 17 44 22 3 6 38 12 78 14 58 3
87 12 156 44 46 23 84 45 84 50 0 5 -2002 9 -5040 9 l-5040 0 0 -6410z m2007
1214 c-3 -3 -12 -4 -19 -1 -8 3 -5 6 6 6 11 1 17 -2 13 -5z m-87 -674 c0 -5
-2 -10 -4 -10 -3 0 -8 5 -11 10 -3 6 -1 10 4 10 6 0 11 -4 11 -10z m3570 -284
c0 -3 -4 -8 -10 -11 -5 -3 -10 -1 -10 4 0 6 5 11 10 11 6 0 10 -2 10 -4z m-3
-158 c6 -7 13 -22 16 -33 3 -11 10 -35 16 -53 6 -19 6 -30 0 -27 -5 4 -9 10
-9 16 0 5 -13 28 -30 50 -27 38 -31 59 -11 59 5 0 13 -6 18 -12z m383 -128 c0
-5 -4 -10 -10 -10 -5 0 -10 5 -10 10 0 6 5 10 10 10 6 0 10 -4 10 -10z m-300
-44 c0 -7 10 -21 23 -33 38 -34 67 -73 67 -89 0 -24 -20 -5 -69 66 -40 58 -52
88 -31 75 6 -3 10 -12 10 -19z m-615 5 c3 -5 1 -13 -5 -16 -15 -9 -43 3 -35
15 8 13 32 13 40 1z m-3035 -31 c0 -5 -4 -10 -9 -10 -6 0 -13 5 -16 10 -3 6 1
10 9 10 9 0 16 -4 16 -10z m2886 -5 c-4 -10 1 -15 14 -15 11 0 20 -7 20 -15 0
-12 -5 -13 -26 -4 -24 8 -25 8 -14 -6 7 -8 10 -18 6 -22 -3 -3 -6 -1 -6 5 0 7
-9 12 -21 12 -15 0 -19 4 -15 16 3 9 6 22 6 30 0 8 9 14 21 14 15 0 19 -5 15
-15z m474 -10 c0 -25 43 -57 66 -48 6 2 16 -3 23 -10 9 -11 8 -17 -4 -27 -13
-11 -20 -11 -40 0 -13 7 -31 10 -39 7 -8 -3 -18 -2 -21 3 -4 6 1 10 9 10 9 0
16 5 16 10 0 6 -4 10 -8 10 -13 0 -35 47 -28 59 12 19 26 12 26 -14z m154 -26
c-19 -21 -34 -25 -34 -8 0 15 32 39 43 32 5 -3 1 -14 -9 -24z m-2696 14 c-10
-2 -18 -9 -18 -14 0 -5 -4 -9 -10 -9 -5 0 -10 7 -10 15 0 10 9 15 28 14 16 -1
20 -3 10 -6z m2417 -53 c45 -22 39 -25 -17 -9 -21 5 -38 14 -38 19 0 14 9 12
55 -10z m-13 -76 c35 -18 58 -18 58 1 0 8 5 15 10 15 6 0 10 -9 10 -19 0 -20
18 -31 51 -31 11 0 18 -4 15 -8 -3 -5 25 -4 61 1 50 7 67 7 73 -3 4 -7 18 -11
31 -8 19 3 24 0 25 -19 1 -15 -4 -23 -15 -24 -12 -1 -12 -2 3 -6 24 -6 73 -36
75 -45 0 -5 1 -12 1 -18 0 -12 82 -60 104 -60 10 0 16 -6 13 -12 -2 -8 -22
-13 -48 -13 -49 0 -89 -12 -89 -26 0 -5 5 -9 10 -9 6 0 10 -5 10 -10 0 -21
-32 -22 -73 -2 -27 14 -55 20 -77 17 -19 -2 -38 -4 -42 -4 -5 -1 -8 -8 -8 -16
0 -8 -4 -15 -10 -15 -5 0 -10 7 -10 15 0 8 -9 15 -20 15 -11 0 -20 5 -20 10 0
6 9 10 19 10 17 0 16 4 -9 30 -28 30 -50 39 -50 20 0 -18 -36 -11 -63 13 -15
12 -27 29 -27 37 0 11 3 11 12 2 12 -12 48 -17 48 -6 0 3 -10 14 -22 25 -20
16 -20 18 -5 19 26 0 20 18 -11 34 -16 8 -40 29 -53 46 -13 17 -34 36 -47 41
-13 5 -20 13 -17 19 7 11 47 4 87 -16z m-2796 -3 c13 -14 92 -14 146 0 27 7
50 10 54 7 9 -10 -23 -76 -43 -86 -19 -10 -44 -5 -54 9 -3 5 -27 12 -55 15
-57 8 -83 22 -62 36 10 6 10 10 -2 18 -8 5 -10 10 -4 10 5 0 14 -4 20 -9z
m2694 -11 c0 -5 -2 -10 -4 -10 -3 0 -8 5 -11 10 -3 6 -1 10 4 10 6 0 11 -4 11
-10z m-1943 -35 c0 -8 -6 -15 -14 -15 -14 0 -17 12 -6 23 11 11 20 8 20 -8z
m-1870 -1 c-3 -3 -12 -4 -19 -1 -8 3 -5 6 6 6 11 1 17 -2 13 -5z m701 -26 c18
-18 14 -28 -11 -28 -13 0 -32 -7 -43 -15 -10 -8 -25 -15 -32 -15 -7 0 -40 -13
-74 -30 -59 -30 -94 -38 -84 -21 8 12 83 51 99 51 7 0 18 9 25 20 7 11 20 20
30 20 10 0 27 7 38 15 23 18 36 19 52 3z m3196 -17 c4 -5 -3 -7 -14 -4 -23 6
-26 13 -6 13 8 0 17 -4 20 -9z m769 -6 c-3 -9 -8 -14 -10 -11 -3 3 -2 9 2 15
9 16 15 13 8 -4z m-4488 -115 c3 -5 1 -10 -4 -10 -6 0 -11 5 -11 10 0 6 2 10
4 10 3 0 8 -4 11 -10z m2695 -21 c0 -5 -4 -9 -10 -9 -5 0 -10 7 -10 16 0 8 5
12 10 9 6 -3 10 -10 10 -16z m665 -8 c-3 -6 -11 -8 -17 -5 -6 4 -5 9 3 15 16
10 23 4 14 -10z m-151 -86 c4 -11 21 -15 58 -15 37 0 49 -3 38 -10 -8 -5 -15
-15 -15 -22 0 -17 -72 -23 -90 -8 -8 7 -19 9 -25 5 -6 -4 -22 1 -36 10 -25 16
-25 17 -8 36 20 23 69 25 78 4z m930 -9 c-6 -15 -24 -23 -24 -11 0 8 24 34 28
30 1 -1 0 -10 -4 -19z m-1404 -16 c12 -8 11 -10 -7 -10 -12 0 -25 5 -28 10 -8
13 15 13 35 0z m1318 -13 c9 -7 16 -7 24 1 12 12 41 4 32 -9 -3 -5 4 -9 15 -9
13 0 21 7 21 16 0 9 6 14 13 11 6 -2 11 -12 11 -21 -1 -9 3 -16 8 -16 6 0 8
-6 5 -14 -3 -8 21 -28 71 -56 43 -24 83 -50 90 -57 7 -7 18 -13 22 -13 5 0 40
-20 77 -45 37 -25 70 -45 75 -45 4 0 8 -5 8 -10 0 -14 -68 22 -146 76 -34 24
-66 44 -70 44 -4 0 -30 11 -58 24 -88 41 -110 47 -166 42 -30 -2 -64 1 -74 6
-19 10 -19 11 -1 24 17 13 17 14 -1 20 -10 3 -29 10 -42 15 -13 5 -36 9 -52 9
-36 0 -61 10 -55 21 7 11 177 -1 193 -14z m-1271 7 c-3 -3 -12 -4 -19 -1 -8 3
-5 6 6 6 11 1 17 -2 13 -5z m627 -1 c26 -4 40 -12 44 -25 4 -18 22 -26 22 -9
0 15 36 19 53 6 24 -17 21 -23 -9 -17 -20 4 -25 1 -22 -9 3 -9 -7 -19 -25 -26
-38 -17 -47 -16 -47 2 0 9 -9 15 -22 15 -39 0 -63 10 -76 31 -23 37 0 46 82
32z m371 -3 c4 -6 -6 -10 -22 -10 -22 0 -25 2 -13 10 19 12 27 12 35 0z
m-3065 -30 c0 -5 -11 -10 -25 -10 -14 0 -25 5 -25 10 0 6 11 10 25 10 14 0 25
-4 25 -10z m2825 -50 c3 -5 -1 -10 -9 -10 -9 0 -16 5 -16 10 0 6 4 10 9 10 6
0 13 -4 16 -10z m62 -6 c-3 -3 -12 -4 -19 -1 -8 3 -5 6 6 6 11 1 17 -2 13 -5z
m-1877 -34 c-19 -13 -30 -13 -30 0 0 6 10 10 23 10 18 0 19 -2 7 -10z m1754
-5 c-5 -12 3 -15 37 -15 53 0 85 -15 54 -25 -11 -4 -28 -11 -37 -16 -19 -9
-48 -2 -48 12 0 5 -11 9 -25 9 -25 0 -25 1 -9 25 18 27 37 34 28 10z m-90 -4
c11 -4 15 -10 9 -14 -5 -3 -19 0 -29 8 -20 15 -11 18 20 6z m-3244 -35 c0 -2
-7 -6 -15 -10 -8 -3 -15 -1 -15 4 0 6 7 10 15 10 8 0 15 -2 15 -4z m3270 -6
c22 -7 21 -8 -12 -9 -21 -1 -38 4 -38 9 0 11 14 11 50 0z m-3341 -49 c12 -8
13 -14 3 -35 -9 -19 -19 -26 -41 -26 -16 0 -33 -4 -36 -10 -9 -14 -27 -12 -23
2 3 7 15 15 29 18 13 3 24 12 25 20 2 34 5 40 17 40 6 0 18 -4 26 -9z m1529
-6 c-20 -7 -47 -11 -60 -7 -20 6 -17 8 17 13 67 10 82 8 43 -6z m972 -35 c0
-5 -4 -10 -10 -10 -5 0 -10 5 -10 10 0 6 5 10 10 10 6 0 10 -4 10 -10z m987
-46 c-3 -3 -12 -4 -19 -1 -8 3 -5 6 6 6 11 1 17 -2 13 -5z m-3464 -31 c-7 -2
-19 -2 -25 0 -7 3 -2 5 12 5 14 0 19 -2 13 -5z m-178 -34 c0 -17 -33 -25 -47
-11 -6 6 -8 18 -5 26 8 19 52 6 52 -15z m1462 -15 c-3 -3 -12 -4 -19 -1 -8 3
-5 6 6 6 11 1 17 -2 13 -5z m78 -4 c-3 -5 -20 -10 -36 -10 -18 0 -28 4 -24 10
3 6 20 10 36 10 18 0 28 -4 24 -10z m3225 -30 c0 -5 -7 -7 -15 -4 -8 4 -15 8
-15 10 0 2 7 4 15 4 8 0 15 -4 15 -10z m-2052 -22 c-5 -15 -58 -24 -58 -9 0
11 17 19 43 20 11 1 17 -4 15 -11z m-288 -132 c0 -11 -19 -15 -25 -6 -3 5 1
10 9 10 9 0 16 -2 16 -4z m2578 -81 c-2 -22 -4 -23 -18 -10 -13 14 -13 17 0
25 20 13 20 13 18 -15z m73 -38 c-10 -9 -11 -8 -5 6 3 10 9 15 12 12 3 -3 0
-11 -7 -18z m-213 -14 c-10 -2 -28 -2 -40 0 -13 2 -5 4 17 4 22 1 32 -1 23 -4z
m138 -39 c18 -14 18 -15 -6 -8 -31 8 -50 24 -29 24 8 0 24 -7 35 -16z m-2386
-173 c0 -6 -4 -13 -10 -16 -5 -3 -10 1 -10 9 0 9 5 16 10 16 6 0 10 -4 10 -9z
m-340 -548 c0 -11 -15 -24 -40 -35 -22 -9 -40 -14 -40 -11 0 9 45 42 58 43 6
0 12 5 12 10 0 6 2 10 5 10 3 0 5 -8 5 -17z m-92 -85 c-8 -13 -32 -32 -54 -43
-21 -11 -42 -24 -46 -30 -4 -5 -18 -10 -30 -11 -13 -1 -31 -5 -40 -9 -27 -11
-22 15 7 48 41 44 67 56 108 52 20 -1 37 1 37 6 0 5 7 9 16 9 15 0 15 -2 2
-22z m107 12 c-3 -5 -15 -10 -26 -10 -11 0 -17 5 -14 10 3 6 15 10 26 10 11 0
17 -4 14 -10z m725 -91 c0 -5 -10 -9 -21 -9 -18 0 -19 2 -9 15 12 15 30 12 30
-6z m-960 -18 c0 -6 -4 -13 -10 -16 -5 -3 -10 1 -10 9 0 9 5 16 10 16 6 0 10
-4 10 -9z m-60 -15 c0 -3 -4 -8 -10 -11 -5 -3 -10 -1 -10 4 0 6 5 11 10 11 6
0 10 -2 10 -4z m1175 -25 c3 -5 1 -12 -4 -15 -5 -3 -11 1 -15 9 -6 16 9 21 19
6z m-52 -26 c-6 -26 -39 -43 -55 -27 -14 14 13 52 38 52 17 0 20 -5 17 -25z
m107 10 c10 -12 10 -15 -3 -15 -8 0 -20 7 -27 15 -10 12 -10 15 3 15 8 0 20
-7 27 -15z m4010 -40 c0 -8 5 -15 12 -15 6 0 3 -8 -7 -20 -17 -19 -35 -19 -35
2 0 5 8 7 18 4 15 -5 15 -4 -2 8 -10 8 -15 19 -11 25 9 16 25 13 25 -4z
m-3936 -140 c-4 -8 -8 -15 -10 -15 -2 0 -4 7 -4 15 0 8 4 15 10 15 5 0 7 -7 4
-15z m-978 -33 c-10 -10 -29 15 -21 28 6 9 10 8 17 -4 6 -10 7 -20 4 -24z
m5344 -98 c0 -2 -7 -4 -15 -4 -10 0 -15 10 -15 33 l0 32 15 -29 c8 -15 15 -30
15 -32z m-2940 42 c0 -2 -7 -9 -15 -16 -13 -11 -14 -10 -9 4 5 14 24 23 24 12z
m-1170 -82 c0 -8 -4 -13 -9 -10 -5 3 -20 -3 -34 -14 -32 -25 -52 -25 -54 -1
-1 13 8 23 25 30 42 15 72 13 72 -5z m-960 -40 c0 -8 -5 -12 -10 -9 -6 4 -8
11 -5 16 9 14 15 11 15 -7z m-232 -29 c-3 -14 -2 -27 2 -30 4 -2 -12 -24 -34
-49 -45 -49 -57 -46 -30 6 10 18 17 39 15 46 -2 11 35 50 48 52 2 0 1 -11 -1
-25z m202 5 c0 -5 -5 -10 -11 -10 -5 0 -7 5 -4 10 3 6 8 10 11 10 2 0 4 -4 4
-10z m-85 -31 c-4 -11 -1 -26 5 -34 10 -13 8 -15 -14 -15 -14 0 -26 -5 -26
-11 0 -5 -5 -7 -10 -4 -6 4 -3 17 10 34 10 16 17 31 14 34 -9 9 6 28 17 21 5
-3 7 -15 4 -25z m45 1 c0 -5 -4 -10 -10 -10 -5 0 -10 5 -10 10 0 6 5 10 10 10
6 0 10 -4 10 -10z m-100 -74 c0 -1 -5 -17 -11 -34 -11 -32 -39 -52 -39 -27 0
28 20 65 35 65 8 0 15 -2 15 -4z m184 -76 c-6 -5 -24 21 -24 34 0 6 6 1 14
-10 8 -10 12 -21 10 -24z m1516 -10 c5 0 12 5 15 10 3 6 13 10 22 10 19 0 -18
-37 -59 -59 -23 -12 -25 -16 -15 -32 7 -11 16 -19 21 -19 5 0 -5 -13 -22 -28
-34 -30 -48 -78 -15 -51 9 8 26 14 37 14 12 0 20 6 18 13 -1 7 6 15 15 19 10
3 26 13 35 21 16 13 20 12 37 -9 l19 -24 -23 -3 c-13 -2 -29 -10 -35 -18 -7
-8 -19 -14 -26 -14 -8 0 -14 -4 -14 -9 0 -5 -16 -26 -35 -47 -19 -22 -35 -43
-35 -47 0 -5 -6 -5 -12 0 -23 14 -43 12 -63 -6 -43 -40 -135 -77 -135 -54 0
13 34 43 49 43 17 1 51 23 51 34 0 3 -16 6 -35 6 -19 0 -35 -4 -35 -9 0 -6
-13 -18 -30 -28 -16 -9 -30 -23 -30 -30 0 -7 -9 -13 -19 -13 -11 0 -21 -3 -23
-7 -1 -5 -33 -23 -71 -42 -55 -27 -70 -31 -82 -21 -13 11 -11 16 10 42 14 16
25 38 25 49 0 19 4 29 29 77 6 13 9 27 6 32 -8 13 -45 -7 -45 -24 0 -8 -14
-13 -37 -14 -26 -1 -44 -8 -56 -24 -11 -13 -48 -55 -83 -94 -36 -39 -80 -95
-99 -125 -19 -30 -35 -49 -35 -43 0 16 24 64 33 64 4 0 7 6 7 13 0 6 7 25 15
41 26 49 -16 75 -59 39 -18 -16 -19 -16 -8 -1 8 10 11 26 7 38 -5 16 -2 20 19
20 14 0 28 5 31 11 4 6 14 8 22 5 12 -5 14 -1 9 19 -6 23 -3 25 24 25 28 0 31
-2 24 -22 -6 -20 -5 -21 9 -9 9 7 14 17 11 22 -3 5 0 9 6 9 6 0 32 19 58 43
55 51 167 137 178 137 4 0 -25 -31 -64 -70 -40 -38 -72 -74 -72 -80 0 -14 47
17 54 37 4 10 15 14 36 11 21 -3 31 0 35 11 3 9 24 32 46 51 23 19 49 43 58
53 25 27 48 21 56 -15 6 -26 9 -28 17 -15 5 9 14 17 20 17 5 0 23 11 40 25 16
14 42 28 56 32 15 3 38 14 50 24 21 16 26 17 39 4 8 -8 18 -15 23 -15z m-489
0 c-13 -11 -29 -20 -35 -20 -6 0 -32 -18 -56 -40 -25 -22 -51 -40 -57 -40 -7
0 -13 -4 -13 -10 0 -5 -7 -10 -15 -10 -8 0 -20 -9 -27 -20 -7 -11 -16 -20 -20
-20 -8 0 -57 -42 -124 -107 -24 -24 -46 -43 -49 -43 -12 0 -22 45 -12 58 7 9
5 11 -9 6 -18 -7 -18 -6 -2 12 17 17 19 17 30 1 12 -16 16 -14 53 21 22 20 59
50 82 66 24 16 48 35 55 44 18 21 -121 -53 -152 -82 -14 -12 -38 -26 -55 -30
-38 -9 -223 -120 -335 -201 -47 -34 -98 -70 -115 -80 -67 -42 53 57 160 132
61 42 125 90 144 105 18 16 44 33 57 38 13 5 79 40 146 77 144 80 173 94 253
126 97 40 131 46 96 17z m879 0 c0 -5 -4 -10 -8 -10 -5 0 -22 -13 -38 -30 -26
-27 -54 -39 -54 -24 0 3 16 21 35 40 34 33 65 44 65 24z m-1728 -72 c-7 -7
-12 -8 -12 -2 0 6 3 14 7 17 3 4 9 5 12 2 2 -3 -1 -11 -7 -17z m1495 5 c-9 -9
-20 -13 -24 -9 -4 4 -1 11 7 16 25 16 35 11 17 -7z m-123 -8 c-25 -19 -40 -19
-24 0 7 8 20 15 28 15 13 0 12 -3 -4 -15z m302 -41 c2 -24 1 -25 -17 -8 -24
21 -24 34 -1 34 11 0 17 -8 18 -26z m2264 16 c0 -5 -2 -10 -4 -10 -3 0 -8 5
-11 10 -3 6 -1 10 4 10 6 0 11 -4 11 -10z m-50 -9 c0 -6 -4 -13 -10 -16 -5 -3
-10 1 -10 9 0 9 5 16 10 16 6 0 10 -4 10 -9z m-3465 -21 c-3 -5 -16 -15 -28
-21 -22 -12 -22 -12 -3 10 19 21 43 30 31 11z m1215 -13 c0 -17 -44 -59 -53
-51 -8 8 31 64 44 64 5 0 9 -6 9 -13z m-904 -6 c-3 -5 1 -14 9 -21 20 -17 2
-40 -25 -33 -14 4 -20 0 -20 -12 0 -11 -7 -15 -22 -13 -13 2 -21 8 -18 13 2 6
10 9 17 7 7 -2 13 2 13 8 0 5 -5 10 -11 10 -7 0 3 11 22 24 39 28 42 29 35 17z
m-551 -31 c-3 -5 -14 -10 -23 -10 -15 0 -15 2 -2 10 20 13 33 13 25 0z m192
-7 c3 -7 -4 -9 -16 -6 -12 3 -18 9 -15 15 7 11 26 6 31 -9z m3451 -3 c-7 -10
-14 -18 -15 -16 -6 6 9 36 18 36 5 0 4 -9 -3 -20z m-2313 -10 c-19 -21 -45
-27 -45 -10 0 11 30 29 49 30 11 0 10 -5 -4 -20z m2355 8 c-1 -14 -34 -58 -44
-58 -3 0 -6 7 -6 15 0 8 4 15 9 15 5 0 13 9 16 20 7 22 25 27 25 8z m-3240
-29 c0 -5 -7 -9 -15 -9 -15 0 -20 12 -9 23 8 8 24 -1 24 -14z m825 -19 c-3 -5
-11 -10 -16 -10 -6 0 -7 5 -4 10 3 6 11 10 16 10 6 0 7 -4 4 -10z m-135 -97
c-35 -32 -67 -59 -72 -61 -17 -7 -7 19 13 36 12 9 34 29 50 43 27 26 44 37 63
38 5 1 -19 -25 -54 -56z m200 40 c0 -9 -6 -13 -14 -10 -8 3 -32 -7 -54 -23
-76 -55 -138 -77 -76 -26 85 68 144 93 144 59z m1640 -23 c0 -5 -7 -10 -15
-10 -8 0 -15 5 -15 10 0 6 7 10 15 10 8 0 15 -4 15 -10z m220 -32 c0 -5 -9 -8
-20 -8 -18 0 -19 3 -8 20 9 14 14 16 20 7 4 -7 8 -15 8 -19z m-2200 -18 c0 -5
-2 -10 -4 -10 -3 0 -8 5 -11 10 -3 6 -1 10 4 10 6 0 11 -4 11 -10z m-1240
-164 c0 -2 -8 -10 -17 -17 -16 -13 -17 -12 -4 4 13 16 21 21 21 13z m8491 -19
c-13 -13 -26 -3 -16 12 3 6 11 8 17 5 6 -4 6 -10 -1 -17z m2 -47 c-3 -11 0
-20 6 -20 6 0 11 -7 11 -15 0 -12 -3 -12 -20 2 -23 20 -27 53 -6 53 9 0 12 -7
9 -20z m-7934 -75 c-16 -39 -27 -56 -24 -40 8 38 48 130 52 118 2 -4 -11 -40
-28 -78z m874 21 c6 -15 -35 -66 -53 -66 -18 0 -11 20 18 50 32 35 29 33 35
16z m-1583 -30 c0 -2 -17 -21 -37 -43 -21 -21 -58 -62 -82 -91 -24 -29 -46
-50 -49 -48 -9 9 143 186 160 186 4 0 8 -2 8 -4z m1632 -14 c-7 -2 -12 -12
-12 -21 0 -24 -36 -55 -55 -48 -8 4 -15 11 -15 16 0 16 71 72 83 64 8 -5 8 -8
-1 -11z m1150 -137 c-2 -14 -6 -25 -8 -25 -2 0 -4 11 -4 25 0 14 4 25 9 25 4
0 6 -11 3 -25z m-642 -24 c0 -10 -30 -24 -37 -17 -3 3 -2 9 2 15 8 13 35 15
35 2z m-2346 -76 c-9 -14 -19 -23 -22 -20 -5 4 26 45 35 45 2 0 -4 -11 -13
-25z m2376 -30 c0 -8 -4 -15 -10 -15 -5 0 -10 7 -10 15 0 8 5 15 10 15 6 0 10
-7 10 -15z m77 -87 c-3 -8 -6 -5 -6 6 -1 11 2 17 5 13 3 -3 4 -12 1 -19z
m-2557 -75 c-1 -5 -10 -24 -21 -43 -11 -19 -18 -27 -15 -17 4 11 9 30 12 43 6
22 25 35 24 17z m2660 -83 c0 -23 -24 -70 -36 -70 -16 0 -19 26 -4 35 6 3 10
17 10 30 0 18 4 23 15 19 8 -4 15 -9 15 -14z m50 -4 c0 -15 -29 -55 -34 -47
-7 11 14 51 26 51 5 0 8 -2 8 -4z m-2808 -208 c-7 -7 -12 -8 -12 -2 0 14 12
26 19 19 2 -3 -1 -11 -7 -17z m1075 -50 c-3 -8 -6 -5 -6 6 -1 11 2 17 5 13 3
-3 4 -12 1 -19z m-1094 -154 c-5 -117 -9 -151 -15 -129 -12 40 5 305 19 292 2
-2 0 -76 -4 -163z m7 -203 c0 -16 2 -44 5 -62 4 -28 4 -30 -3 -9 -15 43 -21
100 -11 100 5 0 9 -13 9 -29z m37 -183 c-3 -8 -6 -5 -6 6 -1 11 2 17 5 13 3
-3 4 -12 1 -19z m30 -90 c-3 -8 -6 -5 -6 6 -1 11 2 17 5 13 3 -3 4 -12 1 -19z"/>
<path d="M5220 6090 c0 -5 7 -10 16 -10 8 0 12 5 9 10 -3 6 -10 10 -16 10 -5
0 -9 -4 -9 -10z"/>
<path d="M5248 5983 c7 -3 16 -2 19 1 4 3 -2 6 -13 5 -11 0 -14 -3 -6 -6z"/>
<path d="M5387 3473 c-4 -3 -7 -11 -7 -17 0 -6 5 -5 12 2 6 6 9 14 7 17 -3 3
-9 2 -12 -2z"/>
<path d="M5360 3412 c0 -7 -7 -12 -15 -12 -8 0 -19 -9 -25 -20 -6 -11 -25 -27
-43 -36 -52 -27 -79 -51 -64 -57 13 -5 111 57 149 95 14 14 17 23 9 31 -8 8
-11 8 -11 -1z"/>
<path d="M5185 3251 c-3 -5 -1 -12 5 -16 5 -3 10 1 10 9 0 18 -6 21 -15 7z"/>
<path d="M5120 3215 c0 -17 9 -19 28 -6 11 7 10 10 -3 15 -23 9 -25 8 -25 -9z"/>
<path d="M2675 9338 c10 -33 20 -40 45 -36 22 3 22 3 -5 31 -34 33 -49 35 -40
5z"/>
<path d="M12510 7630 c-20 -12 -5 -24 16 -12 9 5 12 12 7 15 -5 3 -15 2 -23
-3z"/>
<path d="M12737 7634 c-10 -11 23 -36 39 -30 14 5 14 8 0 21 -16 16 -29 19
-39 9z"/>
<path d="M12660 7613 c-15 -6 -30 -23 -30 -34 0 -4 14 -4 31 0 16 3 30 9 30
14 -1 4 -1 12 -1 17 0 11 -7 12 -30 3z"/>
<path d="M5065 7100 c3 -5 11 -10 16 -10 6 0 7 5 4 10 -3 6 -11 10 -16 10 -6
0 -7 -4 -4 -10z"/>
<path d="M5024 7073 c-12 -2 -30 -13 -40 -25 -19 -20 -19 -20 26 -13 41 7 59
18 60 38 0 7 -9 7 -46 0z"/>
<path d="M5115 7046 c-5 -7 -15 -21 -21 -32 -6 -10 -21 -20 -33 -22 -34 -5
-24 -19 18 -26 21 -3 44 -13 51 -21 17 -20 90 -21 90 -1 0 8 -5 18 -10 21 -6
4 -8 11 -5 16 4 5 -1 9 -10 9 -9 0 -19 9 -22 20 -3 11 -11 20 -19 20 -7 0 -17
6 -21 14 -6 11 -10 11 -18 2z"/>
<path d="M4988 6973 c7 -3 16 -2 19 1 4 3 -2 6 -13 5 -11 0 -14 -3 -6 -6z"/>
<path d="M3002 6953 c-21 -8 -2 -23 29 -23 47 0 119 -21 119 -35 0 -24 29 -37
92 -41 l63 -4 -45 23 c-25 13 -69 36 -98 51 -28 16 -58 26 -66 23 -7 -3 -29
-2 -47 2 -19 4 -40 6 -47 4z"/>
<path d="M4030 6930 c0 -5 5 -10 10 -10 6 0 10 5 10 10 0 6 -4 10 -10 10 -5 0
-10 -4 -10 -10z"/>
<path d="M5340 6931 c0 -5 12 -14 28 -19 15 -6 20 -11 10 -11 -14 -1 -14 -5
-5 -25 10 -20 21 -25 58 -28 42 -3 46 -1 38 15 -5 9 -14 17 -19 17 -4 0 -22
12 -39 26 -17 14 -35 23 -41 19 -5 -3 -10 -1 -10 4 0 6 -4 11 -10 11 -5 0 -10
-4 -10 -9z"/>
<path d="M4108 6923 c7 -3 16 -2 19 1 4 3 -2 6 -13 5 -11 0 -14 -3 -6 -6z"/>
<path d="M3978 6903 c7 -3 16 -2 19 1 4 3 -2 6 -13 5 -11 0 -14 -3 -6 -6z"/>
<path d="M5492 6818 c3 -7 14 -14 26 -16 12 -2 31 -15 43 -30 11 -15 31 -28
44 -29 34 -3 22 19 -23 42 -20 11 -43 26 -50 32 -17 17 -45 17 -40 1z"/>
<path d="M5650 6790 c0 -5 5 -10 11 -10 5 0 7 5 4 10 -3 6 -8 10 -11 10 -2 0
-4 -4 -4 -10z"/>
<path d="M7985 6750 c-3 -5 -1 -10 4 -10 6 0 11 5 11 10 0 6 -2 10 -4 10 -3 0
-8 -4 -11 -10z"/>
<path d="M5751 6724 c0 -11 3 -14 6 -6 3 7 2 16 -1 19 -3 4 -6 -2 -5 -13z"/>
<path d="M5330 6615 c0 -35 31 -67 45 -45 3 5 0 10 -7 10 -10 0 -10 2 1 9 11
7 10 13 -4 35 -24 35 -35 33 -35 -9z"/>
<path d="M5252 6621 c-10 -6 -7 -10 12 -13 18 -4 26 -1 26 8 0 16 -18 18 -38
5z"/>
<path d="M4160 6610 c0 -5 4 -10 9 -10 6 0 13 5 16 10 3 6 -1 10 -9 10 -9 0
-16 -4 -16 -10z"/>
<path d="M4983 6608 c-24 -11 -31 -28 -12 -28 17 0 49 20 49 30 0 12 -9 12
-37 -2z"/>
<path d="M5063 6613 c-13 -2 -23 -9 -23 -15 0 -6 10 -8 23 -4 12 3 30 6 40 6
9 0 17 5 17 10 0 10 -16 11 -57 3z"/>
<path d="M4060 6550 c0 -5 7 -10 15 -10 8 0 15 5 15 10 0 6 -7 10 -15 10 -8 0
-15 -4 -15 -10z"/>
<path d="M5825 6550 c3 -5 13 -10 21 -10 17 0 19 -26 2 -33 -7 -3 -8 -6 -3 -6
6 0 17 3 25 9 12 7 12 12 -4 29 -19 21 -53 30 -41 11z"/>
<path d="M4945 6540 c3 -5 8 -10 11 -10 2 0 4 5 4 10 0 6 -5 10 -11 10 -5 0
-7 -4 -4 -10z"/>
<path d="M4494 6452 c-20 -19 -23 -19 -37 -4 -15 14 -17 14 -23 -2 -8 -22 -8
-22 50 -30 33 -5 46 -4 41 3 -6 11 -5 12 33 16 48 5 43 23 -9 31 -25 4 -39 0
-55 -14z"/>
<path d="M5930 6450 c0 -5 5 -10 11 -10 5 0 7 5 4 10 -3 6 -8 10 -11 10 -2 0
-4 -4 -4 -10z"/>
<path d="M4540 6390 c0 -5 12 -10 28 -10 21 0 24 2 12 10 -20 13 -40 13 -40 0z"/>
<path d="M2175 6320 c-3 -5 -1 -10 4 -10 6 0 11 5 11 10 0 6 -2 10 -4 10 -3 0
-8 -4 -11 -10z"/>
<path d="M1926 6244 c-8 -22 14 -50 25 -32 4 7 4 17 -1 24 -6 6 -7 14 -3 17 3
4 2 7 -4 7 -6 0 -14 -7 -17 -16z"/>
<path d="M4353 6242 c10 -10 17 -24 17 -30 0 -17 35 -15 50 3 11 13 10 18 -6
30 -10 8 -32 15 -48 15 -28 0 -28 -1 -13 -18z"/>
<path d="M4280 6240 c-13 -8 -12 -10 3 -10 9 0 17 5 17 10 0 12 -1 12 -20 0z"/>
<path d="M6080 6225 c0 -8 4 -15 10 -15 5 0 22 -13 37 -30 34 -39 45 -38 41 3
-2 26 -7 31 -24 29 -12 -1 -27 4 -34 13 -16 19 -30 19 -30 0z"/>
<path d="M8668 6144 c-5 -4 -8 -16 -8 -28 0 -14 3 -17 11 -9 6 6 9 19 7 28 -1
9 -6 13 -10 9z"/>
<path d="M6180 6133 c0 -12 40 -45 49 -41 4 2 -5 13 -21 26 -15 13 -28 20 -28
15z"/>
<path d="M4145 6100 c3 -5 8 -10 11 -10 2 0 4 5 4 10 0 6 -5 10 -11 10 -5 0
-7 -4 -4 -10z"/>
<path d="M6110 6010 c0 -11 42 -31 49 -24 2 2 -2 10 -9 19 -14 17 -40 20 -40
5z"/>
<path d="M6155 5760 c-3 -5 3 -10 15 -10 12 0 18 5 15 10 -3 6 -10 10 -15 10
-5 0 -12 -4 -15 -10z"/>
<path d="M6070 5735 c7 -8 19 -15 27 -15 7 0 16 -7 19 -15 4 -10 13 -13 26 -9
10 3 25 0 33 -6 10 -9 15 -9 15 -1 0 12 -92 61 -116 61 -13 0 -14 -3 -4 -15z"/>
<path d="M3470 5672 c0 -5 9 -12 21 -15 13 -3 19 -1 16 6 -5 15 -37 22 -37 9z"/>
<path d="M6260 5650 c0 -5 7 -10 15 -10 8 0 15 5 15 10 0 6 -7 10 -15 10 -8 0
-15 -4 -15 -10z"/>
<path d="M3103 5613 c9 -2 23 -2 30 0 6 3 -1 5 -18 5 -16 0 -22 -2 -12 -5z"/>
<path d="M6213 5605 c-10 -11 -9 -15 7 -20 11 -4 20 -13 20 -21 0 -9 7 -14 18
-12 9 1 33 -7 53 -20 20 -12 44 -22 53 -22 14 0 13 5 -5 39 -26 51 -35 57 -89
65 -32 4 -48 2 -57 -9z"/>
<path d="M3171 5570 c-24 -18 -24 -18 -3 -24 19 -6 62 7 62 19 0 2 -8 9 -18
14 -13 7 -24 4 -41 -9z"/>
<path d="M3616 5581 c-4 -5 -3 -16 0 -25 3 -9 1 -16 -5 -16 -6 0 -11 -5 -11
-10 0 -7 6 -7 18 -2 9 5 23 7 30 5 7 -3 20 -2 29 2 15 5 13 10 -12 30 -33 27
-41 29 -49 16z"/>
<path d="M1744 5562 c-18 -12 -34 -50 -28 -66 3 -9 17 -16 31 -16 18 0 27 -8
34 -30 11 -29 40 -47 59 -35 16 10 12 22 -20 52 -17 16 -32 39 -33 51 -2 27
-28 54 -43 44z"/>
<path d="M1917 5520 c18 -17 37 -30 42 -30 6 0 11 -6 11 -13 0 -7 9 -13 20
-13 17 0 20 7 19 41 -1 22 -3 32 -6 22 -3 -13 -11 -15 -31 -10 -15 3 -29 9
-32 13 -3 4 -16 10 -30 13 -23 6 -23 5 7 -23z"/>
<path d="M6137 5543 c-16 -15 -6 -33 18 -33 23 0 24 2 15 20 -11 21 -22 25
-33 13z"/>
<path d="M3882 5529 c2 -6 8 -10 13 -10 5 0 11 4 13 10 2 6 -4 11 -13 11 -9 0
-15 -5 -13 -11z"/>
<path d="M6291 5514 c24 -26 33 -26 24 -1 -4 8 -16 17 -27 20 -19 5 -19 5 3
-19z"/>
<path d="M3521 5504 c0 -11 3 -14 6 -6 3 7 2 16 -1 19 -3 4 -6 -2 -5 -13z"/>
<path d="M3546 5455 c7 -16 39 -20 48 -6 3 5 -4 11 -17 15 -33 9 -37 7 -31 -9z"/>
<path d="M3636 5455 c4 -8 10 -15 15 -15 5 0 9 7 9 15 0 8 -7 15 -15 15 -9 0
-12 -6 -9 -15z"/>
<path d="M6085 5433 c11 -10 40 -31 65 -48 25 -16 63 -44 84 -62 37 -31 102
-60 112 -50 8 7 -30 67 -43 67 -20 0 -24 18 -11 40 10 15 10 24 1 38 -12 18
-13 18 -55 8 -21 -5 -28 -3 -28 9 0 19 -14 19 -30 1 -8 -10 -19 -12 -33 -7
-12 4 -35 11 -52 15 -30 7 -30 7 -10 -11z"/>
<path d="M1877 5434 c-8 -8 1 -24 14 -24 5 0 9 7 9 15 0 15 -12 20 -23 9z"/>
<path d="M3202 5417 c-42 -21 -51 -43 -16 -40 48 4 142 53 102 53 -9 0 -22 2
-30 4 -7 3 -32 -5 -56 -17z"/>
<path d="M3321 5415 c-19 -6 -29 -15 -24 -18 11 -7 63 14 63 26 0 4 -1 6 -2 6
-2 -1 -18 -7 -37 -14z"/>
<path d="M3467 5421 c-10 -4 -18 -11 -18 -16 0 -6 -7 -9 -15 -7 -12 3 -18 -9
-15 -30 1 -9 -25 -15 -98 -22 -62 -6 -68 -10 -50 -29 10 -10 18 -11 30 -4 9 6
25 7 35 3 18 -7 17 -9 -6 -26 l-25 -20 40 -1 c22 -1 48 -2 57 -3 9 -1 23 -10
31 -20 10 -13 16 -15 21 -8 10 17 46 15 46 -3 0 -8 -4 -15 -10 -15 -5 0 -10
-4 -10 -10 0 -5 10 -10 21 -10 19 0 20 -4 15 -35 l-7 -36 38 2 c42 1 113 27
113 41 0 4 -4 8 -10 8 -5 0 -17 16 -25 36 -13 31 -18 35 -39 30 -29 -7 -46 12
-22 26 35 20 15 29 -59 25 -41 -2 -72 0 -69 4 3 5 -4 9 -15 9 -12 0 -21 -7
-21 -15 0 -8 -4 -15 -9 -15 -5 0 -14 7 -21 15 -10 12 -10 15 1 15 8 0 44 14
81 32 59 29 67 37 68 61 0 28 -15 34 -53 18z m123 -200 c0 -12 -20 -25 -27
-18 -7 7 6 27 18 27 5 0 9 -4 9 -9z"/>
<path d="M3040 5400 c0 -12 -9 -22 -24 -26 -26 -6 -67 -44 -48 -44 22 0 82 35
82 48 0 7 15 19 33 27 l32 14 -37 1 c-31 0 -38 -4 -38 -20z"/>
<path d="M2420 5390 c0 -5 7 -10 16 -10 8 0 12 5 9 10 -3 6 -10 10 -16 10 -5
0 -9 -4 -9 -10z"/>
<path d="M2528 5373 c7 -3 16 -2 19 1 4 3 -2 6 -13 5 -11 0 -14 -3 -6 -6z"/>
<path d="M6365 5240 c3 -5 11 -10 16 -10 6 0 7 5 4 10 -3 6 -11 10 -16 10 -6
0 -7 -4 -4 -10z"/>
<path d="M3671 5204 c0 -11 3 -14 6 -6 3 7 2 16 -1 19 -3 4 -6 -2 -5 -13z"/>
<path d="M3648 5023 c7 -3 16 -2 19 1 4 3 -2 6 -13 5 -11 0 -14 -3 -6 -6z"/>
<path d="M8108 4993 c7 -3 16 -2 19 1 4 3 -2 6 -13 5 -11 0 -14 -3 -6 -6z"/>
<path d="M3760 4950 c0 -5 5 -10 10 -10 6 0 10 5 10 10 0 6 -4 10 -10 10 -5 0
-10 -4 -10 -10z"/>
<path d="M3395 4913 c-63 -4 -102 -18 -162 -59 l-36 -24 31 0 c17 0 34 5 37
10 4 6 10 8 15 5 5 -3 31 0 60 6 35 7 55 8 63 0 17 -14 99 -6 134 13 l28 15
-35 1 c-20 0 -41 -5 -47 -11 -6 -6 -19 -9 -29 -6 -17 4 -17 6 4 12 23 8 32 46
10 43 -7 -1 -40 -3 -73 -5z"/>
<path d="M3715 4881 c-3 -5 -1 -12 5 -16 5 -3 10 1 10 9 0 18 -6 21 -15 7z"/>
<path d="M3608 4863 c7 -3 16 -2 19 1 4 3 -2 6 -13 5 -11 0 -14 -3 -6 -6z"/>
<path d="M3757 4810 c6 -23 16 -25 32 -6 9 11 8 15 -5 20 -26 10 -32 7 -27
-14z"/>
<path d="M8191 4750 c10 -28 49 -44 49 -20 0 6 -7 10 -15 10 -8 0 -15 9 -15
20 0 11 -7 20 -14 20 -12 0 -13 -6 -5 -30z"/>
<path d="M3498 4743 c7 -3 16 -2 19 1 4 3 -2 6 -13 5 -11 0 -14 -3 -6 -6z"/>
<path d="M2836 4700 c-52 -5 -74 -27 -37 -37 12 -3 21 -9 21 -14 0 -15 14 -10
49 20 40 33 34 38 -33 31z"/>
<path d="M2582 4676 c2 -15 11 -22 33 -23 29 -2 29 -2 5 7 l-25 8 23 7 c31 10
27 20 -9 21 -25 1 -30 -2 -27 -20z"/>
<path d="M3045 4690 c3 -5 12 -10 20 -10 8 0 17 5 20 10 4 6 -5 10 -20 10 -15
0 -24 -4 -20 -10z"/>
<path d="M6416 4692 c-8 -14 21 -35 39 -28 16 6 21 26 6 26 -5 0 -16 3 -24 6
-8 3 -18 1 -21 -4z"/>
<path d="M8228 4693 c-21 -5 -23 -23 -5 -46 14 -20 28 -12 44 26 13 29 7 32
-39 20z"/>
<path d="M2678 4683 c6 -2 18 -2 25 0 6 3 1 5 -13 5 -14 0 -19 -2 -12 -5z"/>
<path d="M2755 4650 c-3 -5 1 -10 10 -10 9 0 13 5 10 10 -3 6 -8 10 -10 10 -2
0 -7 -4 -10 -10z"/>
<path d="M3485 4650 c4 -6 11 -8 16 -5 14 9 11 15 -7 15 -8 0 -12 -5 -9 -10z"/>
<path d="M2910 4635 c0 -16 9 -19 34 -9 25 9 19 24 -9 24 -16 0 -25 -6 -25
-15z"/>
<path d="M2560 4620 c0 -5 9 -10 20 -10 11 0 20 5 20 10 0 6 -9 10 -20 10 -11
0 -20 -4 -20 -10z"/>
<path d="M3825 4599 c-12 -19 5 -23 22 -6 16 16 16 17 1 17 -9 0 -20 -5 -23
-11z"/>
<path d="M3645 4530 c-3 -5 1 -10 9 -10 8 0 18 5 21 10 3 6 -1 10 -9 10 -8 0
-18 -4 -21 -10z"/>
<path d="M3895 4500 c-8 -13 25 -13 45 0 12 8 9 10 -12 10 -15 0 -30 -4 -33
-10z"/>
<path d="M4001 4491 c-19 -3 -36 -12 -39 -18 -5 -16 10 -17 26 -1 8 8 12 8 12
1 0 -6 12 -8 30 -4 17 3 31 11 31 16 0 13 -17 14 -60 6z"/>
<path d="M3870 4460 c0 -5 -7 -10 -15 -10 -8 0 -15 -4 -15 -10 0 -15 9 -12 37
10 19 15 21 20 9 20 -9 0 -16 -4 -16 -10z"/>
<path d="M3600 4450 c0 -13 20 -13 40 0 12 8 9 10 -12 10 -16 0 -28 -4 -28
-10z"/>
<path d="M3713 4423 c-7 -2 -13 -9 -13 -14 0 -14 33 -10 54 6 19 15 19 15 -5
14 -13 0 -30 -3 -36 -6z"/>
<path d="M4105 4294 c11 -8 19 -22 17 -30 -2 -11 3 -15 15 -12 19 4 25 38 8
50 -5 4 -21 8 -35 8 -24 -1 -25 -1 -5 -16z"/>
<path d="M3710 4290 c-13 -8 -12 -10 3 -10 9 0 17 5 17 10 0 12 -1 12 -20 0z"/>
<path d="M4070 4254 c0 -14 3 -14 15 -4 8 7 15 14 15 16 0 2 -7 4 -15 4 -8 0
-15 -7 -15 -16z"/>
<path d="M4020 4251 c0 -5 5 -13 10 -16 6 -3 10 -2 10 4 0 5 -4 13 -10 16 -5
3 -10 2 -10 -4z"/>
<path d="M9173 4166 c-4 -7 -30 -18 -58 -23 -48 -9 -49 -10 -24 -21 35 -14
106 -27 97 -17 -4 4 1 16 12 25 12 11 18 24 14 34 -7 20 -30 21 -41 2z"/>
<path d="M4095 4150 c-3 -5 -1 -10 4 -10 6 0 11 5 11 10 0 6 -2 10 -4 10 -3 0
-8 -4 -11 -10z"/>
<path d="M4030 4130 c-11 -11 -26 -20 -34 -20 -8 0 -17 -4 -20 -8 -3 -5 3 -8
14 -7 23 2 90 37 90 47 0 15 -30 8 -50 -12z"/>
<path d="M4227 4065 c6 -17 25 -15 31 3 2 7 -5 12 -17 12 -14 0 -19 -5 -14
-15z"/>
<path d="M3684 4053 c-11 -12 -13 -18 -5 -21 13 -4 41 16 41 29 0 14 -17 10
-36 -8z"/>
<path d="M4180 4059 c0 -5 5 -7 10 -4 6 3 10 8 10 11 0 2 -4 4 -10 4 -5 0 -10
-5 -10 -11z"/>
<path d="M4130 4010 c-14 -10 -22 -22 -18 -26 4 -3 21 5 38 20 36 30 18 36
-20 6z"/>
<path d="M4298 4008 c9 -9 15 -9 24 0 9 9 7 12 -12 12 -19 0 -21 -3 -12 -12z"/>
<path d="M3508 3937 c-7 -7 -22 -17 -33 -21 -14 -6 -16 -10 -7 -13 17 -7 59
15 66 33 7 18 -9 18 -26 1z"/>
<path d="M3874 3936 c-10 -8 -17 -16 -14 -19 8 -8 50 11 50 23 0 14 -13 13
-36 -4z"/>
<path d="M4050 3909 c0 -5 5 -7 10 -4 6 3 10 8 10 11 0 2 -4 4 -10 4 -5 0 -10
-5 -10 -11z"/>
<path d="M4016 3885 c-3 -9 0 -15 9 -15 8 0 15 7 15 15 0 8 -4 15 -9 15 -5 0
-11 -7 -15 -15z"/>
<path d="M3825 3870 c-3 -5 -1 -10 4 -10 6 0 11 5 11 10 0 6 -2 10 -4 10 -3 0
-8 -4 -11 -10z"/>
<path d="M3940 3773 c0 -26 0 -26 19 -7 20 21 18 34 -5 34 -9 0 -14 -10 -14
-27z"/>
<path d="M6080 3747 c-21 -17 -53 -77 -41 -77 16 0 61 53 61 72 0 21 0 21 -20
5z"/>
<path d="M4447 3683 c-12 -11 -8 -23 8 -23 8 0 15 7 15 15 0 16 -12 20 -23 8z"/>
<path d="M5986 3681 c-4 -7 -5 -15 -2 -18 9 -9 19 4 14 18 -4 11 -6 11 -12 0z"/>
<path d="M4161 3603 c-17 -21 -27 -39 -22 -41 12 -4 71 54 71 68 0 20 -19 9
-49 -27z"/>
<path d="M5982 3600 c-12 -16 -22 -42 -22 -57 l0 -28 19 25 c16 20 34 79 27
87 -2 2 -12 -11 -24 -27z"/>
<path d="M8945 3583 c-14 -21 -14 -23 0 -23 9 0 15 9 16 23 0 12 3 16 6 10 6
-17 23 -17 23 0 0 22 -29 16 -45 -10z"/>
<path d="M4110 3539 c0 -5 5 -7 10 -4 6 3 10 8 10 11 0 2 -4 4 -10 4 -5 0 -10
-5 -10 -11z"/>
<path d="M4425 3520 c-3 -5 1 -10 9 -10 9 0 16 5 16 10 0 6 -4 10 -9 10 -6 0
-13 -4 -16 -10z"/>
<path d="M4378 3483 c7 -3 16 -2 19 1 4 3 -2 6 -13 5 -11 0 -14 -3 -6 -6z"/>
<path d="M4538 3453 c7 -3 16 -2 19 1 4 3 -2 6 -13 5 -11 0 -14 -3 -6 -6z"/>
<path d="M7353 3215 c-3 -9 -3 -19 1 -22 3 -4 6 -1 6 5 0 7 9 12 21 12 11 0
17 5 14 10 -9 15 -35 12 -42 -5z"/>
<path d="M8590 3181 c-8 -6 -18 -7 -22 -5 -4 3 -8 -2 -8 -10 0 -11 -9 -16 -26
-16 -20 0 -25 -4 -20 -16 3 -9 6 -20 6 -24 0 -5 12 -2 28 6 15 7 32 14 37 14
6 0 21 10 34 21 21 17 22 22 10 30 -18 11 -21 11 -39 0z"/>
<path d="M6895 3120 c-3 -5 -1 -10 4 -10 6 0 11 5 11 10 0 6 -2 10 -4 10 -3 0
-8 -4 -11 -10z"/>
<path d="M5960 2865 c-7 -9 -10 -18 -7 -21 7 -8 47 14 47 26 0 15 -26 12 -40
-5z"/>
<path d="M6510 2389 c0 -5 5 -7 10 -4 6 3 10 8 10 11 0 2 -4 4 -10 4 -5 0 -10
-5 -10 -11z"/>
</g>
</svg>
